<?xml version="1.0" standalone="no"?>
<!DOCTYPE svg PUBLIC "-//W3C//DTD SVG 1.1//EN" "http://www.w3.org/Graphics/SVG/1.1/DTD/svg11.dtd" >
<svg xmlns="http://www.w3.org/2000/svg">
<metadata>
This is a custom SVG webfont generated by Font Squirrel.
Copyright   : Copyright c 1989 1995 Adobe Systems Incorporated  All Rights ReservedFolio is a registered trademark of Fundicion Tipografica Neufville SA
</metadata>
<defs>
<font id="FolioCondensedBold" horiz-adv-x="872" >
<font-face units-per-em="2048" ascent="1638" descent="-410" />
<missing-glyph horiz-adv-x="436" />
<glyph unicode=" "  horiz-adv-x="436" />
<glyph unicode="&#x09;" horiz-adv-x="436" />
<glyph unicode="&#xa0;" horiz-adv-x="436" />
<glyph unicode="!" horiz-adv-x="530" d="M117 1462h299l-43 -1024h-213zM133 0v266h266v-266h-266z" />
<glyph unicode="&#x22;" horiz-adv-x="681" d="M47 909v553h229v-553h-229zM406 909v553h229v-553h-229z" />
<glyph unicode="#" d="M20 406l7 184h161l29 246h-147l6 184h162l45 405h159l-45 -405h162l47 405h158l-45 -405h133l-6 -184h-148l-28 -246h133l-6 -184h-148l-47 -406h-160l45 406h-159l-47 -406h-160l47 406h-148zM348 590h162l29 246h-162z" />
<glyph unicode="$" d="M25 266v170h274v-84q0 -143 133 -143q68 0 104.5 43t36.5 123q0 70 -56 128t-137 105t-162 102.5t-137 146.5t-56 212q0 213 85 303t263 90v140h127v-140q332 0 331 -303v-143h-266v98q0 119 -137 119q-61 0 -95 -33t-34 -94q0 -70 56.5 -133.5t137 -117.5t161.5 -115.5 t137.5 -157t56.5 -213.5q0 -231 -83 -314.5t-265 -83.5v-139h-127v139q-158 0 -253 75t-95 220z" />
<glyph unicode="%" horiz-adv-x="1251" d="M66 958v295q0 90 51 141.5t125 51.5h123q74 0 125 -51.5t51 -141.5v-295q0 -90 -51.5 -141t-124.5 -51h-123q-74 0 -125 51t-51 141zM82 -20l958 1466h140l-959 -1466h-139zM242 975q0 -20 16 -37.5t45 -17.5t45.5 16t16.5 39v262q0 23 -16.5 39t-45.5 16t-45 -17.5 t-16 -37.5v-262zM733 172v295q0 90 51.5 141t124.5 51h123q74 0 125 -51t51 -141v-295q0 -88 -51 -140t-125 -52h-123q-74 0 -125 52t-51 140zM909 453v-265q0 -20 16.5 -37.5t45 -17.5t45 16.5t16.5 38.5v265q0 20 -16.5 36.5t-44.5 16.5q-27 0 -44.5 -16.5t-17.5 -36.5z " />
<glyph unicode="&#x26;" horiz-adv-x="1099" d="M25 356q0 111 57 208.5t154 156.5q-51 53 -82 140t-31 171q0 373 336 373q168 0 245.5 -82t77.5 -260q0 -98 -26.5 -167t-59 -104.5t-104.5 -93.5l113 -127l83 136h302l-213 -342q20 -20 43.5 -49t39 -42.5t37.5 -15.5h70v-258h-102q-27 0 -49.5 3t-39 6t-35 13.5 t-26.5 15.5t-24.5 22.5t-21.5 24.5t-24.5 30.5t-25.5 31.5q-66 -92 -138.5 -134t-183.5 -42q-184 0 -278 102.5t-94 282.5zM291 352q0 -55 30.5 -89t86.5 -34q72 0 145 109l-164 190q-98 -72 -98 -176zM373 1055q0 -100 67 -178q61 49 83 86.5t22 99.5q0 113 -86 113 q-39 0 -62.5 -31t-23.5 -90z" />
<glyph unicode="'" horiz-adv-x="454" d="M113 909v553h229v-553h-229z" />
<glyph unicode="(" horiz-adv-x="606" d="M115 236v991q0 119 61.5 177t169.5 58h182v-205h-69q-61 0 -88 -16t-27 -59v-901q0 -43 26.5 -59.5t88.5 -16.5h69v-205h-182q-109 0 -170 58.5t-61 177.5z" />
<glyph unicode=")" horiz-adv-x="606" d="M78 0v205h69q61 0 88 16.5t27 59.5v901q0 43 -26.5 59t-88.5 16h-69v205h182q109 0 170.5 -58t61.5 -177v-991q0 -119 -61.5 -177.5t-170.5 -58.5h-182z" />
<glyph unicode="*" horiz-adv-x="833" d="M72 1227l102 84l217 -166l4 4l-86 260l109 82l108 -82l-86 -260l4 -4l218 166l102 -84l-37 -127h-258v-4l205 -142l-33 -131h-143l-78 262h-4l-78 -262h-143l-33 131l205 142v4h-258z" />
<glyph unicode="+" horiz-adv-x="1228" d="M86 414v229h414v414h229v-414h414v-229h-414v-414h-229v414h-414z" />
<glyph unicode="," horiz-adv-x="436" d="M66 -266l122 266h-102v266h266v-266l-137 -266h-149z" />
<glyph unicode="-" horiz-adv-x="645" d="M86 406v245h473v-245h-473z" />
<glyph unicode="." horiz-adv-x="436" d="M86 0v266h266v-266h-266z" />
<glyph unicode="/" horiz-adv-x="606" d="M-12 -29l401 1520h229l-401 -1520h-229z" />
<glyph unicode="0" d="M70 291v844q0 164 90 237.5t276.5 73.5t276.5 -74t90 -237v-844q0 -164 -91 -237.5t-275.5 -73.5t-275.5 73.5t-91 237.5zM360 340q0 -104 76 -104t76 104v745q0 106 -76 106.5t-76 -106.5v-745z" />
<glyph unicode="1" d="M123 1159v178l205 88h290v-1425h-290v1159h-205z" />
<glyph unicode="2" d="M66 0v240q0 78 69.5 200.5t152.5 229t152.5 220.5t69.5 177q0 72 -17.5 97.5t-60.5 25.5t-60.5 -22.5t-17.5 -80.5v-90h-288v107q0 176 80.5 259t285.5 83q209 0 288 -80t79 -283q0 -117 -42 -222t-97.5 -177t-138.5 -189.5t-140 -230.5h424v-264h-739z" />
<glyph unicode="3" d="M72 291v139h278v-65q0 -76 17.5 -102.5t62.5 -26.5t62.5 26.5t17.5 102.5v124q0 76 -17.5 104t-62.5 28h-137v262h137q80 0 80 90v129q0 90 -80 90t-80 -90v-105h-278v138q0 164 90 237.5t274.5 73.5t274.5 -74t90 -237v-123q0 -242 -203 -250v-6q203 -8 203 -250v-215 q0 -164 -90 -237.5t-274.5 -73.5t-274.5 73.5t-90 237.5z" />
<glyph unicode="4" d="M25 340v258l321 827h397v-827h105v-258h-105v-340h-278v340h-440zM262 598h203v528h-4z" />
<glyph unicode="5" d="M72 287v139h278v-57q0 -80 18.5 -110t61.5 -30t61.5 30t18.5 110v256q0 80 -18.5 109.5t-61.5 29.5q-80 0 -80 -100v-17h-246v778h646v-266h-379v-239h4q14 45 70.5 64.5t117.5 19.5q98 0 168 -72t70 -189v-456q0 -166 -90 -241t-274.5 -75t-274.5 75t-90 241z" />
<glyph unicode="6" d="M70 283v815q0 184 83 266t283 82q199 0 283 -78t84 -238v-129h-291v95q0 96 -76 96t-76 -96v-283h5q47 76 165 76q131 0 202 -76t71 -203v-327q0 -156 -90 -229.5t-276.5 -73.5t-276.5 73.5t-90 229.5zM360 309q0 -74 72 -73q80 0 80 73v262q0 76 -80 76q-72 0 -72 -76 v-262z" />
<glyph unicode="7" d="M109 1159v266h655v-237l-322 -1188h-307l318 1159h-344z" />
<glyph unicode="8" d="M61 492q0 137 48.5 200.5t156.5 67.5v4q-113 16 -152.5 83.5t-39.5 190.5v127q0 131 94 206t268 75t268.5 -75t94.5 -206v-127q0 -123 -40 -190.5t-153 -83.5v-4q109 -8 157 -71.5t48 -201.5v-204q0 -166 -90 -234.5t-284.5 -68.5t-285 68.5t-90.5 234.5v209zM352 309 q0 -74 84 -73.5t84 73.5v262q0 76 -84 76t-84 -76v-262zM352 1004q0 -123 84 -123t84 123v65q0 123 -84 123t-84 -123v-65z" />
<glyph unicode="9" d="M70 295v131h290v-96q0 -94 76 -94t76 94v284h-4q-47 -78 -166 -77q-133 0 -202.5 75.5t-69.5 204.5v326q0 158 90 230.5t276.5 72.5t276.5 -73t90 -230v-815q0 -182 -83 -265t-284 -83q-199 0 -282.5 77.5t-83.5 237.5zM360 854q0 -74 76 -74t76 74v262q0 76 -76 76 t-76 -76v-262z" />
<glyph unicode=":" horiz-adv-x="436" d="M86 0v266h266v-266h-266zM86 735v266h266v-266h-266z" />
<glyph unicode=";" horiz-adv-x="436" d="M66 -266l122 266h-102v266h266v-266l-137 -266h-149zM86 737v267h266v-267h-266z" />
<glyph unicode="&#x3c;" horiz-adv-x="1228" d="M86 436v185l1057 442v-221l-756 -314l756 -313v-221z" />
<glyph unicode="=" horiz-adv-x="1228" d="M86 188v230h1057v-230h-1057zM86 639v229h1057v-229h-1057z" />
<glyph unicode="&#x3e;" horiz-adv-x="1228" d="M86 -6v221l754 313l-754 314v221l1057 -442v-185z" />
<glyph unicode="?" horiz-adv-x="833" d="M66 1022v123q0 188 85 267t267 79q352 0 352 -356q0 -129 -32.5 -204t-90.5 -136l-29 -30q-27 -28 -31 -35l-24 -32q-18 -25 -23 -41t-11.5 -42.5t-6.5 -57.5v-115h-266v205q0 47 18.5 92t38 71t56.5 69q53 61 81.5 113t28.5 122q0 147 -73.5 147.5t-73.5 -147.5v-92 h-266zM256 0v266h266v-266h-266z" />
<glyph unicode="@" horiz-adv-x="1638" d="M78 729q0 322 227 542t551 220q283 0 495 -173t212 -446q0 -127 -42 -232t-103.5 -168.5t-135.5 -108t-133 -61.5t-102 -17q-45 0 -77 27.5t-34 76.5l-4 2q-94 -106 -205 -106q-133 0 -232.5 107.5t-99.5 250.5q0 193 120 338t304 145q162 0 244 -127l24 103h185 l-103 -500q-12 -61 -12 -76q0 -43 29 -43q78 0 141.5 89.5t63.5 242.5q0 240 -149.5 372t-391.5 132q-254 0 -408.5 -166t-154.5 -424q0 -266 165.5 -428t430.5 -162q227 0 403 148h189q-106 -152 -263 -234t-346 -82q-328 0 -558 216t-230 542zM625 674q0 -76 43 -124 t114 -48q96 0 160 74.5t64 171.5q0 74 -45.5 119.5t-116.5 45.5q-92 0 -155.5 -73.5t-63.5 -165.5z" />
<glyph unicode="A" horiz-adv-x="909" d="M8 0l248 1462h397l248 -1462h-309l-35 258h-207l-31 -258h-311zM381 524h143l-63 693h-4z" />
<glyph unicode="B" horiz-adv-x="909" d="M90 0v1462h436q170 0 248 -73.5t78 -225.5v-127q0 -209 -180 -266v-4q188 -29 188 -248v-219q0 -152 -77.5 -225.5t-247.5 -73.5h-445zM389 266h70q66 0 83 31t19 152q0 121 -18.5 151.5t-83.5 30.5h-70v-365zM389 897h76q53 0 70.5 27.5t17.5 122.5q0 92 -18.5 120.5 t-69.5 28.5h-76v-299z" />
<glyph unicode="C" d="M70 315v832q0 182 87 263t289.5 81t289.5 -81t87 -263v-207h-299v219q0 31 -22.5 48.5t-55.5 17.5q-41 0 -59 -22.5t-18 -80.5v-782q0 -57 18.5 -79.5t58.5 -22.5q33 0 55.5 17t22.5 48v270h299v-258q0 -182 -87 -263t-289.5 -81t-289.5 81t-87 263z" />
<glyph unicode="D" horiz-adv-x="909" d="M90 0v1462h369q207 0 296 -72.5t89 -271.5v-774q0 -199 -89 -271.5t-296 -72.5h-369zM389 266h70q47 0 66.5 28t19.5 99v676q0 72 -19.5 99.5t-66.5 27.5h-70v-930z" />
<glyph unicode="E" horiz-adv-x="757" d="M90 0v1462h615v-266h-316v-299h301v-266h-301v-365h316v-266h-615z" />
<glyph unicode="F" horiz-adv-x="757" d="M90 0v1462h615v-266h-316v-299h301v-266h-301v-631h-299z" />
<glyph unicode="G" horiz-adv-x="909" d="M70 260v887q0 182 87 263t289 81q215 0 304.5 -80t89.5 -264v-90h-299v88q0 43 -19.5 61.5t-66.5 18.5t-66.5 -18.5t-19.5 -61.5v-828q0 -43 19.5 -61t66.5 -18t66.5 18t19.5 61v314h-88v266h387v-897h-195l-43 106q-49 -74 -99 -104.5t-143 -30.5q-133 0 -211.5 76 t-78.5 213z" />
<glyph unicode="H" horiz-adv-x="948" d="M90 0v1462h299v-565h172v565h299v-1462h-299v631h-172v-631h-299z" />
<glyph unicode="I" horiz-adv-x="493" d="M98 0v1462h299v-1462h-299z" />
<glyph unicode="J" horiz-adv-x="833" d="M10 315v146h291v-133q0 -49 17.5 -69.5t60.5 -20.5t60.5 20.5t17.5 69.5v1134h299v-1147q0 -197 -83 -270.5t-286 -73.5t-290 73.5t-87 270.5z" />
<glyph unicode="K" horiz-adv-x="948" d="M90 0v1462h299v-692h4l230 692h315l-254 -717l260 -745h-315l-236 721h-4v-721h-299z" />
<glyph unicode="L" horiz-adv-x="720" d="M90 0v1462h299v-1196h316v-266h-615z" />
<glyph unicode="M" horiz-adv-x="1402" d="M82 0v1462h475l145 -1159h5l139 1159h475v-1462h-283v1249h-4l-184 -1249h-297l-184 1249h-4v-1249h-283z" />
<glyph unicode="N" horiz-adv-x="1099" d="M90 0v1462h379l254 -1030h4v1030h283v-1462h-375l-258 1022h-4v-1022h-283z" />
<glyph unicode="O" horiz-adv-x="909" d="M70 315v832q0 199 89 271.5t296 72.5t296 -72.5t89 -271.5v-832q0 -199 -89 -271.5t-296 -72.5t-296 72.5t-89 271.5zM369 317q0 -43 19.5 -61t66.5 -18t66.5 18t19.5 61v828q0 43 -19.5 61.5t-66.5 18.5t-66.5 -18.5t-19.5 -61.5v-828z" />
<glyph unicode="P" d="M90 0v1462h369q221 0 303 -69.5t82 -264.5v-278q0 -195 -82 -264.5t-303 -69.5h-70v-516h-299zM389 782h76q51 0 69.5 38t18.5 155q0 152 -15.5 186.5t-72.5 34.5h-76v-414z" />
<glyph unicode="Q" horiz-adv-x="909" d="M70 315v832q0 199 89 271.5t296 72.5t296 -72.5t89 -271.5v-832q0 -170 -64.5 -245.5t-206.5 -89.5v-43q0 -35 20.5 -55.5t53.5 -20.5h115v-230h-203q-117 0 -166 46.5t-49 179.5v125q-143 14 -206.5 89.5t-63.5 243.5zM369 317q0 -43 19.5 -61t66.5 -18t66.5 18t19.5 61 v828q0 43 -19.5 61.5t-66.5 18.5t-66.5 -18.5t-19.5 -61.5v-828z" />
<glyph unicode="R" horiz-adv-x="909" d="M90 0v1462h383q203 0 291 -64.5t88 -234.5v-174q0 -80 -40 -142.5t-132 -76.5v-4q94 -16 137 -84t43 -205v-317q0 -90 3 -117t18 -43h-301q-18 33 -19 59v498q0 74 -96 74h-76v-631h-299zM389 897h76q51 0 69.5 28.5t18.5 121.5q0 90 -17.5 119.5t-70.5 29.5h-76v-299z " />
<glyph unicode="S" horiz-adv-x="833" d="M33 324v137h299v-103q0 -121 86 -120q45 0 65.5 27.5t20.5 92.5q0 61 -26.5 111.5t-67.5 87.5t-91.5 74t-100.5 80t-92 96t-67.5 133t-25.5 178q0 201 86 287t299 86q195 0 286 -82t91 -272v-115h-291v82q0 121 -86 121q-45 0 -65.5 -28t-20.5 -93q0 -59 34.5 -110.5 t87 -87.5t114 -86t113.5 -103t87 -143.5t35 -202.5q0 -227 -83 -313.5t-304 -86.5q-209 0 -296 77t-87 276z" />
<glyph unicode="T" horiz-adv-x="757" d="M8 1196v266h742v-266h-222v-1196h-299v1196h-221z" />
<glyph unicode="U" horiz-adv-x="909" d="M70 315v1147h299v-1102q0 -74 18.5 -98t67.5 -24t67.5 24.5t18.5 97.5v1102h299v-1147q0 -199 -89 -271.5t-296 -72.5t-296 72.5t-89 271.5z" />
<glyph unicode="V" horiz-adv-x="909" d="M8 1462h309l136 -1132h4l139 1132h305l-248 -1462h-397z" />
<glyph unicode="W" horiz-adv-x="1478" d="M8 1462h309l121 -1143h4l129 1143h336l133 -1145h4l117 1145h309l-225 -1462h-377l-127 1118h-4l-127 -1118h-377z" />
<glyph unicode="X" horiz-adv-x="985" d="M8 0l320 762l-293 700h313l146 -397l-5 4v-4h5l139 397h313l-293 -700l324 -762h-318l-167 449l-166 -449h-318z" />
<glyph unicode="Y" horiz-adv-x="948" d="M8 1462h314l151 -526h4l150 526h313l-317 -905v-557h-299v557z" />
<glyph unicode="Z" horiz-adv-x="796" d="M45 0v266l358 930h-348v266h686v-266l-372 -930h407v-266h-731z" />
<glyph unicode="[" horiz-adv-x="606" d="M115 0v1462h413v-205h-184v-1052h184v-205h-413z" />
<glyph unicode="\" horiz-adv-x="569" d="M-31 1491h230l401 -1520h-229z" />
<glyph unicode="]" horiz-adv-x="606" d="M78 0v205h184v1052h-184v205h414v-1462h-414z" />
<glyph unicode="^" horiz-adv-x="1228" d="M143 657l369 768h205l368 -768h-225l-246 541l-245 -541h-226z" />
<glyph unicode="_" horiz-adv-x="1024" d="M0 -154h1024v-102h-1024v102z" />
<glyph unicode="`" horiz-adv-x="454" d="M-23 1479h242l125 -291h-151z" />
<glyph unicode="a" horiz-adv-x="833" d="M41 274v62q0 102 32.5 168.5t82 93.5t106.5 46.5t106.5 29.5t82 39.5t32.5 81.5q0 33 -16 57.5t-49 24.5q-53 0 -69.5 -34t-16.5 -124h-254v100q0 127 89 196.5t253 69.5t253 -69.5t89 -196.5v-618q0 -84 33 -201h-281q-18 45 -18 115h-4q-55 -143 -209 -144 q-125 0 -183.5 70.5t-58.5 232.5zM332 289q0 -88 84 -88q20 0 37.5 17.5t17.5 49.5v238l-47 -31q-35 -23 -42 -30t-24.5 -27.5t-21.5 -44t-4 -58.5v-26z" />
<glyph unicode="b" d="M76 0v1462h291v-516h4q16 59 72.5 99t142.5 40q94 0 152.5 -62t58.5 -169v-651q0 -106 -58.5 -169t-152.5 -63q-84 0 -145.5 47.5t-82.5 120.5h-4v-139h-278zM367 291q0 -43 23.5 -66.5t53.5 -23.5q61 0 62 90v475q0 90 -62 90q-31 0 -54 -23.5t-23 -66.5v-475z" />
<glyph unicode="c" horiz-adv-x="796" d="M51 264v529q0 141 88 216.5t258 75.5q350 0 351 -292v-138h-267v119q0 82 -69.5 82t-69.5 -82v-491q0 -82 69.5 -82t69.5 82v139h267v-158q0 -293 -351 -293q-170 0 -258 76t-88 217z" />
<glyph unicode="d" d="M76 203v651q0 106 58.5 168.5t152.5 62.5q86 0 142 -39.5t73 -99.5h4v516h291v-1462h-279v145q-23 -78 -85 -126t-146 -48q-94 0 -152.5 63t-58.5 169zM367 291q0 -90 61 -90q31 0 54.5 23.5t23.5 66.5v475q0 43 -23.5 66.5t-54.5 23.5q-61 0 -61 -90v-475z" />
<glyph unicode="e" horiz-adv-x="833" d="M61 258v473q0 186 81 270t275.5 84t275.5 -83.5t81 -270.5v-272h-422v-164q0 -94 78 -94t78 94v57h266v-94q0 -287 -356.5 -287t-356.5 287zM352 659h156v97q0 100 -78 100t-78 -100v-97z" />
<glyph unicode="f" horiz-adv-x="569" d="M12 819v238h101v133q0 145 66.5 208.5t205.5 63.5h172v-237h-68q-45 0 -65.5 -17.5t-20.5 -60.5v-90h154v-238h-154v-819h-290v819h-101z" />
<glyph unicode="g" d="M76 233v619q0 113 61.5 173t151.5 60q92 0 153.5 -50t71.5 -101h4v123h279v-1090q0 -186 -84 -261t-273 -75q-201 0 -276.5 62.5t-75.5 236.5h279q0 -86 69.5 -86t69.5 88v187h-4q-74 -119 -213 -119q-90 0 -151.5 60t-61.5 173zM367 319q0 -90 61 -90q31 0 54.5 23.5 t23.5 66.5v447q0 43 -23.5 66.5t-54.5 23.5q-61 0 -61 -90v-447z" />
<glyph unicode="h" d="M76 0v1462h278v-528h4q27 63 86.5 107t133.5 44q100 0 159.5 -62t59.5 -192v-831h-291v754q0 102 -66 102q-39 0 -56 -26.5t-17 -96.5v-733h-291z" />
<glyph unicode="i" horiz-adv-x="454" d="M82 0v1057h291v-1057h-291zM94 1184v278h266v-278h-266z" />
<glyph unicode="j" horiz-adv-x="454" d="M-39 -111h72q27 0 38 24t11 87v1057h291v-1204q0 -104 -76 -163t-174 -59h-162v258zM94 1184v278h266v-278h-266z" />
<glyph unicode="k" horiz-adv-x="833" d="M76 0v1462h291v-909l4 -2l151 506h289l-164 -502l172 -555h-289l-159 537h-4v-537h-291z" />
<glyph unicode="l" horiz-adv-x="454" d="M82 0v1462h291v-1462h-291z" />
<glyph unicode="m" horiz-adv-x="1290" d="M78 0v1057h278v-119h4q12 51 73 99t147 48q158 0 196 -151h4q25 63 83.5 107t133.5 44q100 0 157.5 -62t57.5 -192v-831h-290v754q0 59 -13.5 80.5t-44.5 21.5q-41 0 -57 -28.5t-16 -94.5v-733h-291v754q0 59 -13.5 80.5t-44.5 21.5q-41 0 -57 -28.5t-16 -94.5v-733h-291 z" />
<glyph unicode="n" d="M76 0v1057h278v-123h4q27 63 86.5 107t133.5 44q100 0 159.5 -62t59.5 -192v-831h-291v754q0 102 -66 102q-39 0 -56 -26.5t-17 -96.5v-733h-291z" />
<glyph unicode="o" horiz-adv-x="833" d="M59 289v479q0 162 97.5 239.5t261.5 77.5t261 -77.5t97 -239.5v-479q0 -162 -97 -240t-261 -78t-261.5 78t-97.5 240zM350 291q0 -49 15.5 -69.5t52.5 -20.5t52 20.5t15 69.5v475q0 49 -15 69.5t-52 20.5t-52.5 -20.5t-15.5 -69.5v-475z" />
<glyph unicode="p" d="M76 -369v1426h278v-139h4q20 74 82 120.5t146 46.5q94 0 152.5 -62t58.5 -169v-651q0 -106 -58.5 -169t-152.5 -63q-86 0 -142.5 40t-72.5 100h-4v-480h-291zM367 291q0 -43 23.5 -66.5t53.5 -23.5q61 0 62 90v475q0 90 -62 90q-31 0 -54 -23.5t-23 -66.5v-475z" />
<glyph unicode="q" d="M76 203v651q0 106 58.5 168.5t152.5 62.5q84 0 145.5 -47t81.5 -120h4v139h279v-1426h-291v480h-4q-16 -59 -72.5 -99.5t-142.5 -40.5q-94 0 -152.5 63t-58.5 169zM367 291q0 -90 61 -90q31 0 54.5 23.5t23.5 66.5v475q0 43 -23.5 66.5t-54.5 23.5q-61 0 -61 -90v-475z " />
<glyph unicode="r" horiz-adv-x="606" d="M76 1057h280v-209h4q57 127 105.5 170t136.5 55v-354h-4q-29 6 -55 6q-78 0 -127 -51t-49 -144v-530h-291v1057z" />
<glyph unicode="s" horiz-adv-x="796" d="M45 283v82h279v-46q0 -119 75 -118q63 0 64 84q0 49 -31 83.5t-78 54t-100 48.5t-100.5 62.5t-78 102.5t-30.5 163q0 133 89 209.5t265 76.5q330 0 330 -266v-98h-266v65q0 31 -20.5 50.5t-51.5 19.5q-68 0 -67 -63q0 -47 44 -83t107.5 -64t127 -63.5t107.5 -101 t44 -157.5q1 -15 0 -30q0 -154 -79 -235q-87 -88 -276 -88q-354 1 -354 312z" />
<glyph unicode="t" horiz-adv-x="569" d="M14 819v238h92v280h291v-280h158v-238h-158v-430q0 -86 14.5 -108.5t63.5 -22.5h80v-258h-287q-80 0 -121 48t-41 132v639h-92z" />
<glyph unicode="u" d="M76 225v832h291v-754q0 -102 65 -102q39 0 56.5 26.5t17.5 96.5v733h291v-1057h-279v123h-4q-27 -63 -86 -107.5t-133 -44.5q-100 0 -159.5 62.5t-59.5 191.5z" />
<glyph unicode="v" horiz-adv-x="833" d="M8 1057h299l109 -799h4l106 799h299l-241 -1057h-334z" />
<glyph unicode="w" horiz-adv-x="1290" d="M14 1057h297l80 -791h4l92 791h322l90 -791h4l82 791h291l-199 -1057h-348l-80 791h-4l-84 -791h-348z" />
<glyph unicode="x" horiz-adv-x="796" d="M14 0l199 563l-174 494h297l61 -373h4l68 373h297l-182 -494l198 -563h-299l-84 389h-4l-82 -389h-299z" />
<glyph unicode="y" horiz-adv-x="833" d="M4 1057h305l125 -772h4l84 772h307l-274 -1215q-25 -111 -79 -161t-161 -50h-186v258h109q63 0 63 45q0 12 -12 50z" />
<glyph unicode="z" horiz-adv-x="681" d="M25 0v238l294 581h-294v238h626v-238l-295 -581h303v-238h-634z" />
<glyph unicode="{" horiz-adv-x="606" d="M74 631v205q37 -2 69.5 23.5t32.5 84.5v305q0 213 201 213h151v-205h-36q-49 0 -67.5 -18t-18.5 -72v-266q0 -131 -164 -166v-4q55 -2 109.5 -39t54.5 -119v-278q0 -53 18 -71.5t68 -18.5h36v-205h-151q-201 0 -201 213v305q0 59 -31.5 85t-70.5 28z" />
<glyph unicode="|" horiz-adv-x="454" d="M113 -512v2048h229v-2048h-229z" />
<glyph unicode="}" horiz-adv-x="606" d="M78 0v205h37q49 0 67.5 18.5t18.5 71.5v278q0 82 54 119t110 39v4q-164 35 -164 166v266q0 53 -18.5 71.5t-67.5 18.5h-37v205h151q201 0 201 -213v-305q0 -59 33 -85q30 -24 64 -24q3 0 5 1v-205q-39 -2 -70.5 -27.5t-31.5 -85.5v-305q0 -213 -201 -213h-151z" />
<glyph unicode="~" horiz-adv-x="1228" d="M143 528q88 176 254 177q80 0 228 -66l44 -19q30 -13 47 -21l41 -16q24 -9 42 -13.5t35 -4.5q39 0 73.5 24.5t55 51.5t49.5 72l73 -185q-88 -176 -254 -176q-80 0 -227 66l-44 19q-30 13 -47 21l-41 16q-24 9 -42 13.5t-35 4.5q-39 0 -73.5 -25t-55 -51.5t-49.5 -71.5z " />
<glyph unicode="&#xa1;" horiz-adv-x="530" d="M115 -340l43 1024h213l43 -1024h-299zM131 856v266h266v-266h-266z" />
<glyph unicode="&#xa2;" d="M88 264v529q0 133 81 207.5t216 84.5v111h127v-111q127 -18 199.5 -92.5t72.5 -199.5v-134h-266v95q0 102 -69.5 102t-69.5 -102v-451q0 -102 69.5 -102t69.5 102v119h266v-158q0 -125 -72.5 -199.5t-199.5 -93.5v-143h-127v143q-135 10 -216 85t-81 208z" />
<glyph unicode="&#xa3;" d="M8 676v112h135q-80 141 -80 318q0 166 102.5 253t301.5 87q182 0 266 -93t84 -282v-76h-266v64q0 57 -31 92t-69 35q-89 0 -89 -111q0 -31 11.5 -71.5t39 -112.5t38.5 -103h204v-112h-161q35 -82 34 -146q0 -72 -43 -139t-90 -88l4 -4q6 1 13 1q38 0 115 -29 q91 -34 114 -33q10 0 16.5 4t10.5 13t5 15l3 19q2 12 2 14h186q4 -324 -252 -323q-61 0 -173.5 39.5t-139.5 39.5q-70 0 -76 -59h-188q-1 14 -1 28q0 107 42 183q47 86 162 96q33 66 32 146q0 51 -77 223h-185z" />
<glyph unicode="&#xa4;" d="M59 422l82 82q-63 68 -63 209t63 209l-82 82l95 94l86 -84q68 63 196.5 63t196.5 -63l86 84l94 -94l-82 -82q63 -68 63.5 -209.5t-63.5 -208.5l82 -82l-94 -94l-86 84q-68 -63 -197 -63.5t-196 63.5l-86 -84zM242 713q0 -88 55 -150.5t139 -62.5t139.5 62.5t55.5 150.5 t-55.5 150.5t-139.5 62.5t-139 -62.5t-55 -150.5z" />
<glyph unicode="&#xa5;" d="M29 1425h280l127 -497h4l123 497h281l-168 -538h153v-115h-190l-47 -149h237v-115h-249v-508h-291v508h-244v115h236l-48 149h-188v115h154z" />
<glyph unicode="&#xa6;" horiz-adv-x="454" d="M113 358h229v-716h-229v716zM113 666v716h229v-716h-229z" />
<glyph unicode="&#xa7;" horiz-adv-x="985" d="M78 553q0 152 44 222.5t136 90.5v4q-37 8 -74 81t-37 163q0 340 351 340q172 0 255 -72.5t83 -230.5v-78h-254l-4 64q0 39 -20.5 64.5t-59.5 25.5q-80 0 -80 -115q0 -51 50 -88t122 -66.5t143.5 -69.5t121.5 -123t50 -202q0 -154 -42 -218t-134 -81v-4q23 -4 47.5 -24.5 t48 -79t23.5 -142.5q0 -174 -88 -258t-275 -84q-178 0 -264 80t-86 219v95h270v-78q0 -39 20.5 -63.5t59.5 -24.5q80 0 80 112q0 51 -50 90t-121.5 71t-143.5 73t-122 118.5t-50 188.5zM360 563q0 -72 30 -104.5t101.5 -32.5t101.5 33t30 104q0 74 -30 106.5t-101.5 32.5 t-101.5 -32.5t-30 -106.5z" />
<glyph unicode="&#xa8;" horiz-adv-x="454" d="M-39 1225v221h193v-221h-193zM301 1225v221h193v-221h-193z" />
<glyph unicode="&#xa9;" horiz-adv-x="1638" d="M35 731q0 344 231.5 552t553 208t553 -208t231.5 -552t-231.5 -552t-553 -208t-553 208t-231.5 552zM264 731q0 -254 161 -419t394 -165q231 0 393 165t162 419t-161.5 419t-393.5 165q-233 0 -394 -165t-161 -419zM426 737q0 195 113.5 319t306.5 124q141 0 239.5 -81 t122.5 -231h-176q-27 131 -186 131q-98 0 -152.5 -68.5t-54.5 -189.5q0 -115 58.5 -190.5t152.5 -75.5q168 0 182 141h185q-25 -152 -127.5 -236.5t-239.5 -84.5q-190 0 -307 126t-117 316z" />
<glyph unicode="&#xaa;" horiz-adv-x="499" d="M8 958v37q0 72 30 115t72 58.5t84 23.5t71.5 26.5t29.5 53.5q0 49 -41 49q-35 0 -46 -20.5t-11 -73.5h-164v59q0 76 57 118t163.5 42t165 -42t58.5 -118v-371q0 -43 21 -120h-183q-12 31 -12 69h-4q-33 -86 -133 -86q-82 0 -120 42t-38 138zM197 969q0 -53 55 -54 q12 0 24.5 10.5t12.5 30.5v142l-27 -17q-16 -10 -23.5 -14t-17.5 -13.5t-14 -17.5t-7 -21.5t-3 -31.5v-14z" />
<glyph unicode="&#xab;" horiz-adv-x="833" d="M41 528l199 256h213l-199 -256l199 -256h-213zM381 528l199 256h213l-199 -256l199 -256h-213z" />
<glyph unicode="&#xac;" horiz-adv-x="1228" d="M86 639v229h1057v-680h-230v451h-827z" />
<glyph unicode="&#xad;" horiz-adv-x="645" d="M86 406v245h473v-245h-473z" />
<glyph unicode="&#xae;" horiz-adv-x="1638" d="M35 731q0 344 231.5 552t553 208t553 -208t231.5 -552t-231.5 -552t-553 -208t-553 208t-231.5 552zM264 731q0 -254 161 -419t394 -165q231 0 393 165t162 419t-161.5 419t-393.5 165q-233 0 -394 -165t-161 -419zM510 315v832h313q172 0 256 -56.5t84 -193.5 q0 -209 -229 -221l217 -361h-182l-195 353h-84v-353h-180zM690 807h158q74 0 102.5 25.5t28.5 82.5q0 92 -162 93h-127v-201z" />
<glyph unicode="&#xaf;" horiz-adv-x="454" d="M-57 1266v131h569v-131h-569z" />
<glyph unicode="&#xb0;" horiz-adv-x="819" d="M117 1153q0 123 85 208t207.5 85t207.5 -85t85 -208t-85 -208t-207.5 -85t-207.5 85t-85 208zM264 1153q0 -70 40 -112t105.5 -42t105.5 42t40 112t-40 112t-105.5 42t-105.5 -42t-40 -112z" />
<glyph unicode="&#xb1;" horiz-adv-x="1228" d="M86 0v229h1057v-229h-1057zM86 569v230h414v258h229v-258h414v-230h-414v-258h-229v258h-414z" />
<glyph unicode="&#xb2;" horiz-adv-x="522" d="M20 578v143q0 59 72 160l145 195q73 95 72 143q0 43 -11 58t-40 15q-49 0 -49 -61v-55h-189v63q0 106 52.5 156.5t185.5 50.5q135 0 187.5 -48t52.5 -171q0 -70 -28 -133.5t-63 -106.5l-91 -114q-54 -71 -91 -138h277v-157h-482z" />
<glyph unicode="&#xb3;" horiz-adv-x="522" d="M25 752v84h180v-39q0 -45 11 -61.5t42 -16.5q29 0 40 16.5t11 61.5v73q0 45 -11 62.5t-40 17.5h-90v158h90q51 0 51 53v78q0 53 -51 53q-53 0 -53 -53v-63h-180v81q0 100 58 144.5t177 44.5q121 0 179.5 -44t58.5 -145v-73q0 -143 -131 -150v-4q131 -2 131 -149v-129 q0 -98 -58.5 -142.5t-179.5 -44.5q-119 0 -177 44.5t-58 142.5z" />
<glyph unicode="&#xb4;" horiz-adv-x="454" d="M111 1188l125 291h241l-215 -291h-151z" />
<glyph unicode="&#xb5;" d="M76 -369v1426h291v-766q0 -90 63 -90q31 0 53.5 23.5t22.5 66.5v766h291v-1057h-279v139h-4q-39 -125 -147 -155v-353h-291z" />
<glyph unicode="&#xb6;" horiz-adv-x="1269" d="M111 1096q0 180 113.5 273t365.5 93h559v-1831h-229v1655h-146v-1655h-229v1110q-203 0 -318.5 95.5t-115.5 259.5z" />
<glyph unicode="&#xb7;" horiz-adv-x="436" d="M72 528.5q0 59.5 43 102.5t102 43t102 -43t43 -102.5t-43 -102.5t-102 -43t-102 43t-43 102.5z" />
<glyph unicode="&#xb8;" horiz-adv-x="454" d="M12 -412l33 80q72 -29 137 -28q39 0 73 19t34 58q0 78 -92 78q-25 0 -76 -10l-37 35l113 180h102l-84 -121q37 6 74 6q72 0 118 -43t46 -118q0 -80 -68 -127.5t-176 -47.5q-115 0 -197 39z" />
<glyph unicode="&#xb9;" horiz-adv-x="522" d="M51 1274v106l133 54h189v-856h-189v696h-133z" />
<glyph unicode="&#xba;" horiz-adv-x="499" d="M16 969v286q0 190 234 191q231 0 231 -191v-286q0 -190 -231 -191q-234 1 -234 191zM205 969q0 -55 45 -56q43 0 43 56v286q0 55 -43 56q-45 0 -45 -56v-286z" />
<glyph unicode="&#xbb;" horiz-adv-x="833" d="M41 272l199 256l-199 256h213l199 -256l-199 -256h-213zM381 272l199 256l-199 256h213l199 -256l-199 -256h-213z" />
<glyph unicode="&#xbc;" horiz-adv-x="1308" d="M51 1274v106l133 54h189v-856h-189v696h-133zM125 -20l870 1466h156l-870 -1466h-156zM717 205v153l211 498h258v-496h67v-155h-67v-205h-180v205h-289zM872 360h134v316h-5z" />
<glyph unicode="&#xbd;" horiz-adv-x="1308" d="M51 1274v106l133 54h189v-856h-189v696h-133zM106 -20l871 1466h156l-871 -1466h-156zM807 0v143q0 59 72 160l144 196q73 95 73 142q0 43 -11.5 58.5t-40.5 15.5q-49 0 -49 -62v-55h-188v64q0 106 52 156t185 50q135 0 187.5 -48t52.5 -171q0 -70 -27.5 -133t-63.5 -106 l-90 -114q-54 -71 -91 -138h276v-158h-481z" />
<glyph unicode="&#xbe;" horiz-adv-x="1308" d="M25 752v84h180v-39q0 -45 11 -61.5t42 -16.5q29 0 40 16.5t11 61.5v73q0 45 -11 62.5t-40 17.5h-90v158h90q51 0 51 53v78q0 53 -51 53q-53 0 -53 -53v-63h-180v81q0 100 58 144.5t177 44.5q121 0 179.5 -44t58.5 -145v-73q0 -143 -131 -150v-4q131 -2 131 -149v-129 q0 -98 -58.5 -142.5t-179.5 -44.5q-119 0 -177 44.5t-58 142.5zM156 -20l870 1466h156l-871 -1466h-155zM717 205v153l211 498h258v-496h67v-155h-67v-205h-180v205h-289zM872 360h134v316h-5z" />
<glyph unicode="&#xbf;" horiz-adv-x="833" d="M63 -12q0 129 33 203.5t90 136.5l29 29q27 28 32 35l23 32q18 25 23.5 41t11.5 43t6 57v115h267v-205q0 -47 -18.5 -92t-38 -70.5t-56.5 -68.5q-53 -61 -82 -113.5t-29 -122.5q0 -147 74 -147t74 147v92h266v-123q0 -188 -85 -267t-267 -79q-353 1 -353 357zM311 856v266 h267v-266h-267z" />
<glyph unicode="&#xc0;" horiz-adv-x="909" d="M8 0l248 1462h397l248 -1462h-309l-35 258h-207l-31 -258h-311zM205 1843h241l125 -291h-151zM381 524h143l-63 693h-4z" />
<glyph unicode="&#xc1;" horiz-adv-x="909" d="M8 0l248 1462h397l248 -1462h-309l-35 258h-207l-31 -258h-311zM338 1552l125 291h242l-216 -291h-151zM381 524h143l-63 693h-4z" />
<glyph unicode="&#xc2;" horiz-adv-x="909" d="M8 0l248 1462h397l248 -1462h-309l-35 258h-207l-31 -258h-311zM160 1552l182 291h225l183 -291h-193l-104 177l-109 -177h-184zM381 524h143l-63 693h-4z" />
<glyph unicode="&#xc3;" horiz-adv-x="909" d="M8 0l248 1462h397l248 -1462h-309l-35 258h-207l-31 -258h-311zM150 1577q4 88 53 163t131 75q59 0 141 -35t107 -35q27 0 41 23.5t14 58.5h127q-6 -98 -51 -168t-131 -70q-51 0 -134 35t-96 35q-39 0 -57.5 -25.5t-18.5 -56.5h-126zM381 524h143l-63 693h-4z" />
<glyph unicode="&#xc4;" horiz-adv-x="909" d="M8 0l248 1462h397l248 -1462h-309l-35 258h-207l-31 -258h-311zM188 1589v221h193v-221h-193zM381 524h143l-63 693h-4zM528 1589v221h193v-221h-193z" />
<glyph unicode="&#xc5;" horiz-adv-x="909" d="M8 0l248 1462h397l248 -1462h-309l-35 258h-207l-31 -258h-311zM285 1685.5q0 71.5 50 120.5t119.5 49t120 -49t50.5 -120.5t-50.5 -120.5t-120 -49t-119.5 49t-50 120.5zM381 524h143l-63 693h-4zM387 1685.5q0 -26.5 19.5 -47t48 -20.5t48 20.5t19.5 47t-19.5 47 t-48 20.5t-48 -20.5t-19.5 -47z" />
<glyph unicode="&#xc6;" horiz-adv-x="1290" d="M4 0l408 1462h809v-266h-316v-299h301v-266h-301v-365h316v-266h-609v256h-233l-64 -256h-311zM436 522h170v723h-4z" />
<glyph unicode="&#xc7;" d="M70 315v832q0 182 87 263t289.5 81t289.5 -81t87 -263v-207h-299v219q0 31 -22.5 48.5t-55.5 17.5q-41 0 -59 -22.5t-18 -80.5v-782q0 -57 18.5 -79.5t58.5 -22.5q33 0 55.5 17t22.5 48v270h299v-258q0 -170 -74.5 -250.5t-244.5 -89.5l-66 -96q37 6 74 6q72 0 118 -43 t46 -118q0 -80 -67.5 -127.5t-176.5 -47.5q-115 0 -196 39l32 80q72 -29 138 -28q39 0 72.5 19t33.5 58q0 78 -92 78q-25 0 -76 -10l-37 35l96 153q-180 8 -256.5 89t-76.5 253z" />
<glyph unicode="&#xc8;" horiz-adv-x="757" d="M90 0v1462h615v-266h-316v-299h301v-266h-301v-365h316v-266h-615zM143 1843h242l125 -291h-152z" />
<glyph unicode="&#xc9;" horiz-adv-x="757" d="M90 0v1462h615v-266h-316v-299h301v-266h-301v-365h316v-266h-615zM276 1552l125 291h242l-215 -291h-152z" />
<glyph unicode="&#xca;" horiz-adv-x="757" d="M90 0v1462h615v-266h-316v-299h301v-266h-301v-365h316v-266h-615zM98 1552l183 291h225l182 -291h-192l-105 177l-108 -177h-185z" />
<glyph unicode="&#xcb;" horiz-adv-x="757" d="M90 0v1462h615v-266h-316v-299h301v-266h-301v-365h316v-266h-615zM127 1589v221h192v-221h-192zM467 1589v221h192v-221h-192z" />
<glyph unicode="&#xcc;" horiz-adv-x="493" d="M-2 1843h242l125 -291h-152zM98 0v1462h299v-1462h-299z" />
<glyph unicode="&#xcd;" horiz-adv-x="493" d="M98 0v1462h299v-1462h-299zM131 1552l125 291h242l-215 -291h-152z" />
<glyph unicode="&#xce;" horiz-adv-x="493" d="M-47 1552l182 291h225l183 -291h-193l-104 177l-109 -177h-184zM98 0v1462h299v-1462h-299z" />
<glyph unicode="&#xcf;" horiz-adv-x="493" d="M-18 1589v221h192v-221h-192zM98 0v1462h299v-1462h-299zM322 1589v221h192v-221h-192z" />
<glyph unicode="&#xd0;" horiz-adv-x="909" d="M35 631v266h55v565h369q207 0 296 -72.5t89 -271.5v-774q0 -199 -89 -271.5t-296 -72.5h-369v631h-55zM389 266h70q47 0 66.5 28t19.5 99v676q0 72 -19.5 99.5t-66.5 27.5h-70v-299h84v-266h-84v-365z" />
<glyph unicode="&#xd1;" horiz-adv-x="1099" d="M90 0v1462h379l254 -1030h4v1030h283v-1462h-375l-258 1022h-4v-1022h-283zM246 1577q4 88 53 163t131 75q59 0 141 -35t107 -35q27 0 41 23.5t14 58.5h127q-6 -98 -51 -168t-131 -70q-51 0 -134 35t-95 35q-39 0 -57.5 -25.5t-18.5 -56.5h-127z" />
<glyph unicode="&#xd2;" horiz-adv-x="909" d="M70 315v832q0 199 89 271.5t296 72.5t296 -72.5t89 -271.5v-832q0 -199 -89 -271.5t-296 -72.5t-296 72.5t-89 271.5zM205 1843h241l125 -291h-151zM369 317q0 -43 19.5 -61t66.5 -18t66.5 18t19.5 61v828q0 43 -19.5 61.5t-66.5 18.5t-66.5 -18.5t-19.5 -61.5v-828z" />
<glyph unicode="&#xd3;" horiz-adv-x="909" d="M70 315v832q0 199 89 271.5t296 72.5t296 -72.5t89 -271.5v-832q0 -199 -89 -271.5t-296 -72.5t-296 72.5t-89 271.5zM338 1552l125 291h242l-216 -291h-151zM369 317q0 -43 19.5 -61t66.5 -18t66.5 18t19.5 61v828q0 43 -19.5 61.5t-66.5 18.5t-66.5 -18.5t-19.5 -61.5 v-828z" />
<glyph unicode="&#xd4;" horiz-adv-x="909" d="M70 315v832q0 199 89 271.5t296 72.5t296 -72.5t89 -271.5v-832q0 -199 -89 -271.5t-296 -72.5t-296 72.5t-89 271.5zM160 1552l182 291h225l183 -291h-193l-104 177l-109 -177h-184zM369 317q0 -43 19.5 -61t66.5 -18t66.5 18t19.5 61v828q0 43 -19.5 61.5t-66.5 18.5 t-66.5 -18.5t-19.5 -61.5v-828z" />
<glyph unicode="&#xd5;" horiz-adv-x="909" d="M70 315v832q0 199 89 271.5t296 72.5t296 -72.5t89 -271.5v-832q0 -199 -89 -271.5t-296 -72.5t-296 72.5t-89 271.5zM150 1577q4 88 53 163t131 75q59 0 141 -35t107 -35q27 0 41 23.5t14 58.5h127q-6 -98 -51 -168t-131 -70q-51 0 -134 35t-96 35q-39 0 -57.5 -25.5 t-18.5 -56.5h-126zM369 317q0 -43 19.5 -61t66.5 -18t66.5 18t19.5 61v828q0 43 -19.5 61.5t-66.5 18.5t-66.5 -18.5t-19.5 -61.5v-828z" />
<glyph unicode="&#xd6;" horiz-adv-x="909" d="M70 315v832q0 199 89 271.5t296 72.5t296 -72.5t89 -271.5v-832q0 -199 -89 -271.5t-296 -72.5t-296 72.5t-89 271.5zM188 1589v221h193v-221h-193zM369 317q0 -43 19.5 -61t66.5 -18t66.5 18t19.5 61v828q0 43 -19.5 61.5t-66.5 18.5t-66.5 -18.5t-19.5 -61.5v-828z M528 1589v221h193v-221h-193z" />
<glyph unicode="&#xd7;" horiz-adv-x="1228" d="M86 156l375 372l-375 373l156 156l372 -373l373 373l156 -156l-375 -373l375 -372l-156 -156l-373 373l-372 -373z" />
<glyph unicode="&#xd8;" horiz-adv-x="909" d="M49 -53l68 149q-47 74 -47 219v832q0 199 89 271.5t296 72.5q193 0 274 -59l47 102l84 -37l-63 -139q43 -72 43 -211v-832q0 -199 -89.5 -271.5t-295.5 -72.5q-184 0 -269 54l-53 -115zM369 317q0 -43 19.5 -61t66.5 -18t66.5 18t19.5 61v482h-4l-168 -375v-107zM369 645 h4l168 375v125q0 43 -19.5 61.5t-66.5 18.5t-66.5 -18.5t-19.5 -61.5v-500z" />
<glyph unicode="&#xd9;" horiz-adv-x="909" d="M70 315v1147h299v-1102q0 -74 18.5 -98t67.5 -24t67.5 24.5t18.5 97.5v1102h299v-1147q0 -199 -89 -271.5t-296 -72.5t-296 72.5t-89 271.5zM205 1843h241l125 -291h-151z" />
<glyph unicode="&#xda;" horiz-adv-x="909" d="M70 315v1147h299v-1102q0 -74 18.5 -98t67.5 -24t67.5 24.5t18.5 97.5v1102h299v-1147q0 -199 -89 -271.5t-296 -72.5t-296 72.5t-89 271.5zM338 1552l125 291h242l-216 -291h-151z" />
<glyph unicode="&#xdb;" horiz-adv-x="909" d="M70 315v1147h299v-1102q0 -74 18.5 -98t67.5 -24t67.5 24.5t18.5 97.5v1102h299v-1147q0 -199 -89 -271.5t-296 -72.5t-296 72.5t-89 271.5zM160 1552l182 291h225l183 -291h-193l-104 177l-109 -177h-184z" />
<glyph unicode="&#xdc;" horiz-adv-x="909" d="M70 315v1147h299v-1102q0 -74 18.5 -98t67.5 -24t67.5 24.5t18.5 97.5v1102h299v-1147q0 -199 -89 -271.5t-296 -72.5t-296 72.5t-89 271.5zM188 1589v221h193v-221h-193zM528 1589v221h193v-221h-193z" />
<glyph unicode="&#xdd;" horiz-adv-x="948" d="M8 1462h314l151 -526h4l150 526h313l-317 -905v-557h-299v557zM358 1552l125 291h242l-215 -291h-152z" />
<glyph unicode="&#xde;" d="M90 0v1462h299v-223h70q221 0 303 -69.5t82 -264.5v-278q0 -195 -82 -264.5t-303 -69.5h-70v-293h-299zM389 559h45q68 0 89.5 37t21.5 170t-21.5 170t-89.5 37h-45v-414z" />
<glyph unicode="&#xdf;" d="M74 0v1163q0 139 93 233.5t275 94.5q170 0 269.5 -68.5t99.5 -218.5q0 -229 -205 -254v-4q98 0 157.5 -57.5t59.5 -167.5v-453q0 -125 -52 -196.5t-146 -71.5h-170v258h34q43 0 43 70v417q0 70 -43 70h-34v250q51 0 70.5 21.5t19.5 72.5q0 94 -90 94t-90 -123v-1130h-291 z" />
<glyph unicode="&#xe0;" horiz-adv-x="833" d="M41 274v62q0 102 32.5 168.5t82 93.5t106.5 46.5t106.5 29.5t82 39.5t32.5 81.5q0 33 -16 57.5t-49 24.5q-53 0 -69.5 -34t-16.5 -124h-254v100q0 127 89 196.5t253 69.5t253 -69.5t89 -196.5v-618q0 -84 33 -201h-281q-18 45 -18 115h-4q-55 -143 -209 -144 q-125 0 -183.5 70.5t-58.5 232.5zM168 1479h242l125 -291h-152zM332 289q0 -88 84 -88q20 0 37.5 17.5t17.5 49.5v238l-47 -31q-35 -23 -42 -30t-24.5 -27.5t-21.5 -44t-4 -58.5v-26z" />
<glyph unicode="&#xe1;" horiz-adv-x="833" d="M41 274v62q0 102 32.5 168.5t82 93.5t106.5 46.5t106.5 29.5t82 39.5t32.5 81.5q0 33 -16 57.5t-49 24.5q-53 0 -69.5 -34t-16.5 -124h-254v100q0 127 89 196.5t253 69.5t253 -69.5t89 -196.5v-618q0 -84 33 -201h-281q-18 45 -18 115h-4q-55 -143 -209 -144 q-125 0 -183.5 70.5t-58.5 232.5zM301 1188l125 291h242l-215 -291h-152zM332 289q0 -88 84 -88q20 0 37.5 17.5t17.5 49.5v238l-47 -31q-35 -23 -42 -30t-24.5 -27.5t-21.5 -44t-4 -58.5v-26z" />
<glyph unicode="&#xe2;" horiz-adv-x="833" d="M41 274v62q0 102 32.5 168.5t82 93.5t106.5 46.5t106.5 29.5t82 39.5t32.5 81.5q0 33 -16 57.5t-49 24.5q-53 0 -69.5 -34t-16.5 -124h-254v100q0 127 89 196.5t253 69.5t253 -69.5t89 -196.5v-618q0 -84 33 -201h-281q-18 45 -18 115h-4q-55 -143 -209 -144 q-125 0 -183.5 70.5t-58.5 232.5zM123 1188l182 291h225l183 -291h-193l-104 176l-109 -176h-184zM332 289q0 -88 84 -88q20 0 37.5 17.5t17.5 49.5v238l-47 -31q-35 -23 -42 -30t-24.5 -27.5t-21.5 -44t-4 -58.5v-26z" />
<glyph unicode="&#xe3;" horiz-adv-x="833" d="M41 274v62q0 102 32.5 168.5t82 93.5t106.5 46.5t106.5 29.5t82 39.5t32.5 81.5q0 33 -16 57.5t-49 24.5q-53 0 -69.5 -34t-16.5 -124h-254v100q0 127 89 196.5t253 69.5t253 -69.5t89 -196.5v-618q0 -84 33 -201h-281q-18 45 -18 115h-4q-55 -143 -209 -144 q-125 0 -183.5 70.5t-58.5 232.5zM113 1212q4 88 53 163t131 75q59 0 141 -35t107 -35q27 0 41 23.5t14 58.5h127q-6 -98 -51 -167.5t-131 -69.5q-51 0 -134 34.5t-96 34.5q-39 0 -57 -25.5t-18 -56.5h-127zM332 289q0 -88 84 -88q20 0 37.5 17.5t17.5 49.5v238l-47 -31 q-35 -23 -42 -30t-24.5 -27.5t-21.5 -44t-4 -58.5v-26z" />
<glyph unicode="&#xe4;" horiz-adv-x="833" d="M41 274v62q0 102 32.5 168.5t82 93.5t106.5 46.5t106.5 29.5t82 39.5t32.5 81.5q0 33 -16 57.5t-49 24.5q-53 0 -69.5 -34t-16.5 -124h-254v100q0 127 89 196.5t253 69.5t253 -69.5t89 -196.5v-618q0 -84 33 -201h-281q-18 45 -18 115h-4q-55 -143 -209 -144 q-125 0 -183.5 70.5t-58.5 232.5zM152 1225v221h192v-221h-192zM332 289q0 -88 84 -88q20 0 37.5 17.5t17.5 49.5v238l-47 -31q-35 -23 -42 -30t-24.5 -27.5t-21.5 -44t-4 -58.5v-26zM492 1225v221h192v-221h-192z" />
<glyph unicode="&#xe5;" horiz-adv-x="833" d="M41 274v62q0 102 32.5 168.5t82 93.5t106.5 46.5t106.5 29.5t82 39.5t32.5 81.5q0 33 -16 57.5t-49 24.5q-53 0 -69.5 -34t-16.5 -124h-254v100q0 127 89 196.5t253 69.5t253 -69.5t89 -196.5v-618q0 -84 33 -201h-281q-18 45 -18 115h-4q-55 -143 -209 -144 q-125 0 -183.5 70.5t-58.5 232.5zM248 1321q0 72 50 121t119.5 49t120 -49t50.5 -121t-50.5 -121t-120 -49t-119.5 49t-50 121zM332 289q0 -88 84 -88q20 0 37.5 17.5t17.5 49.5v238l-47 -31q-35 -23 -42 -30t-24.5 -27.5t-21.5 -44t-4 -58.5v-26zM350 1321 q0 -27 19.5 -47.5t48 -20.5t48 20.5t19.5 47.5t-19.5 47.5t-48 20.5t-48 -20.5t-19.5 -47.5z" />
<glyph unicode="&#xe6;" horiz-adv-x="1251" d="M45 274v62q0 121 46 191.5t111.5 95t130 39t110.5 44t46 89.5q0 33 -17 57.5t-50 24.5q-53 0 -69.5 -34t-16.5 -122h-254v98q0 127 79 196.5t232 69.5q143 0 232 -77q84 78 229 77q166 0 252 -77.5t86 -216.5v-332h-422v-164q0 -94 78 -94t78 94v57h266v-94 q0 -287 -334 -287q-82 0 -133 7.5t-109.5 45t-93.5 111.5h-4q-14 -61 -80.5 -112.5t-167.5 -51.5q-113 0 -169 70.5t-56 232.5zM336 293q0 -96 80 -96q25 0 44 22.5t19 48.5v234l-57 -37q-39 -25 -50.5 -34t-23.5 -31.5t-12 -53.5v-53zM770 659h156v105q0 92 -78 92t-78 -92 v-105z" />
<glyph unicode="&#xe7;" horiz-adv-x="796" d="M51 264v529q0 141 88 216.5t258 75.5q350 0 351 -292v-138h-267v119q0 82 -69.5 82t-69.5 -82v-491q0 -82 69.5 -82t69.5 82v139h267v-158q0 -262 -281 -289l-66 -96q37 6 74 6q72 0 118 -43t46 -118q0 -80 -67.5 -127.5t-176.5 -47.5q-115 0 -196 39l32 80 q72 -29 138 -28q39 0 72.5 19t33.5 58q0 78 -92 78q-25 0 -76 -10l-37 35l95 153q-154 6 -234 81t-80 210z" />
<glyph unicode="&#xe8;" horiz-adv-x="833" d="M61 258v473q0 186 81 270t275.5 84t275.5 -83.5t81 -270.5v-272h-422v-164q0 -94 78 -94t78 94v57h266v-94q0 -287 -356.5 -287t-356.5 287zM182 1479h242l125 -291h-152zM352 659h156v97q0 100 -78 100t-78 -100v-97z" />
<glyph unicode="&#xe9;" horiz-adv-x="833" d="M61 258v473q0 186 81 270t275.5 84t275.5 -83.5t81 -270.5v-272h-422v-164q0 -94 78 -94t78 94v57h266v-94q0 -287 -356.5 -287t-356.5 287zM315 1188l125 291h242l-215 -291h-152zM352 659h156v97q0 100 -78 100t-78 -100v-97z" />
<glyph unicode="&#xea;" horiz-adv-x="833" d="M61 258v473q0 186 81 270t275.5 84t275.5 -83.5t81 -270.5v-272h-422v-164q0 -94 78 -94t78 94v57h266v-94q0 -287 -356.5 -287t-356.5 287zM137 1188l182 291h226l182 -291h-192l-105 176l-108 -176h-185zM352 659h156v97q0 100 -78 100t-78 -100v-97z" />
<glyph unicode="&#xeb;" horiz-adv-x="833" d="M61 258v473q0 186 81 270t275.5 84t275.5 -83.5t81 -270.5v-272h-422v-164q0 -94 78 -94t78 94v57h266v-94q0 -287 -356.5 -287t-356.5 287zM166 1225v221h192v-221h-192zM352 659h156v97q0 100 -78 100t-78 -100v-97zM506 1225v221h192v-221h-192z" />
<glyph unicode="&#xec;" horiz-adv-x="454" d="M-23 1479h242l125 -291h-151zM82 0v1057h291v-1057h-291z" />
<glyph unicode="&#xed;" horiz-adv-x="454" d="M82 0v1057h291v-1057h-291zM111 1188l125 291h241l-215 -291h-151z" />
<glyph unicode="&#xee;" horiz-adv-x="454" d="M-68 1188l183 291h225l182 -291h-192l-105 176l-108 -176h-185zM82 0v1057h291v-1057h-291z" />
<glyph unicode="&#xef;" horiz-adv-x="454" d="M-39 1225v221h193v-221h-193zM82 0v1057h291v-1057h-291zM301 1225v221h193v-221h-193z" />
<glyph unicode="&#xf0;" horiz-adv-x="833" d="M59 289v479q0 160 92.5 236.5t245.5 80.5q-4 6 -21.5 36t-29.5 44l-162 -67l-90 135l160 67q-55 76 -90 117l205 45q23 -20 82 -82l178 74l90 -135l-158 -66q215 -233 215 -485v-479q0 -162 -97 -240t-261 -78t-261.5 78t-97.5 240zM350 291q0 -49 15.5 -69.5t52.5 -20.5 t52 20.5t15 69.5v475q0 49 -15 69.5t-52 20.5t-52.5 -20.5t-15.5 -69.5v-475z" />
<glyph unicode="&#xf1;" d="M76 0v1057h278v-123h4q27 63 86.5 107t133.5 44q100 0 159.5 -62t59.5 -192v-831h-291v754q0 102 -66 102q-39 0 -56 -26.5t-17 -96.5v-733h-291zM131 1212q4 88 53 163t131 75q59 0 141.5 -35t106.5 -35q27 0 41 23.5t14 58.5h127q-6 -98 -51 -167.5t-131 -69.5 q-51 0 -134 34.5t-95 34.5q-39 0 -57.5 -25.5t-18.5 -56.5h-127z" />
<glyph unicode="&#xf2;" horiz-adv-x="833" d="M59 289v479q0 162 97.5 239.5t261.5 77.5t261 -77.5t97 -239.5v-479q0 -162 -97 -240t-261 -78t-261.5 78t-97.5 240zM168 1479h242l125 -291h-152zM350 291q0 -49 15.5 -69.5t52.5 -20.5t52 20.5t15 69.5v475q0 49 -15 69.5t-52 20.5t-52.5 -20.5t-15.5 -69.5v-475z" />
<glyph unicode="&#xf3;" horiz-adv-x="833" d="M59 289v479q0 162 97.5 239.5t261.5 77.5t261 -77.5t97 -239.5v-479q0 -162 -97 -240t-261 -78t-261.5 78t-97.5 240zM301 1188l125 291h242l-215 -291h-152zM350 291q0 -49 15.5 -69.5t52.5 -20.5t52 20.5t15 69.5v475q0 49 -15 69.5t-52 20.5t-52.5 -20.5t-15.5 -69.5 v-475z" />
<glyph unicode="&#xf4;" horiz-adv-x="833" d="M59 289v479q0 162 97.5 239.5t261.5 77.5t261 -77.5t97 -239.5v-479q0 -162 -97 -240t-261 -78t-261.5 78t-97.5 240zM123 1188l182 291h225l183 -291h-193l-104 176l-109 -176h-184zM350 291q0 -49 15.5 -69.5t52.5 -20.5t52 20.5t15 69.5v475q0 49 -15 69.5t-52 20.5 t-52.5 -20.5t-15.5 -69.5v-475z" />
<glyph unicode="&#xf5;" horiz-adv-x="833" d="M59 289v479q0 162 97.5 239.5t261.5 77.5t261 -77.5t97 -239.5v-479q0 -162 -97 -240t-261 -78t-261.5 78t-97.5 240zM113 1212q4 88 53 163t131 75q59 0 141 -35t107 -35q27 0 41 23.5t14 58.5h127q-6 -98 -51 -167.5t-131 -69.5q-51 0 -134 34.5t-96 34.5 q-39 0 -57 -25.5t-18 -56.5h-127zM350 291q0 -49 15.5 -69.5t52.5 -20.5t52 20.5t15 69.5v475q0 49 -15 69.5t-52 20.5t-52.5 -20.5t-15.5 -69.5v-475z" />
<glyph unicode="&#xf6;" horiz-adv-x="833" d="M59 289v479q0 162 97.5 239.5t261.5 77.5t261 -77.5t97 -239.5v-479q0 -162 -97 -240t-261 -78t-261.5 78t-97.5 240zM152 1225v221h192v-221h-192zM350 291q0 -49 15.5 -69.5t52.5 -20.5t52 20.5t15 69.5v475q0 49 -15 69.5t-52 20.5t-52.5 -20.5t-15.5 -69.5v-475z M492 1225v221h192v-221h-192z" />
<glyph unicode="&#xf7;" horiz-adv-x="1228" d="M86 414v229h1057v-229h-1057zM432 104.5q0 75.5 53.5 129t126.5 53.5q76 0 130.5 -53.5t54.5 -129t-53.5 -129t-131.5 -53.5q-74 0 -127 53.5t-53 129zM432 952.5q0 75.5 53.5 129t126.5 53.5q76 0 130.5 -53.5t54.5 -129t-53.5 -129t-131.5 -53.5q-74 0 -127 53.5 t-53 129z" />
<glyph unicode="&#xf8;" horiz-adv-x="833" d="M59 289v479q0 162 97.5 239.5t261.5 77.5q137 0 221 -49l57 109l74 -45l-63 -119q70 -76 69 -213v-479q0 -162 -97 -240t-261 -78q-133 0 -221 52l-62 -113l-74 45l66 123q-68 78 -68 211zM350 291q0 -49 15.5 -69.5t52.5 -20.5t52 20.5t15 69.5v276h-4l-131 -254v-22z M350 496h4l131 254v16q0 49 -15 69.5t-52 20.5t-52.5 -20.5t-15.5 -69.5v-270z" />
<glyph unicode="&#xf9;" d="M76 225v832h291v-754q0 -102 65 -102q39 0 56.5 26.5t17.5 96.5v733h291v-1057h-279v123h-4q-27 -63 -86 -107.5t-133 -44.5q-100 0 -159.5 62.5t-59.5 191.5zM186 1479h242l125 -291h-152z" />
<glyph unicode="&#xfa;" d="M76 225v832h291v-754q0 -102 65 -102q39 0 56.5 26.5t17.5 96.5v733h291v-1057h-279v123h-4q-27 -63 -86 -107.5t-133 -44.5q-100 0 -159.5 62.5t-59.5 191.5zM319 1188l125 291h242l-215 -291h-152z" />
<glyph unicode="&#xfb;" d="M76 225v832h291v-754q0 -102 65 -102q39 0 56.5 26.5t17.5 96.5v733h291v-1057h-279v123h-4q-27 -63 -86 -107.5t-133 -44.5q-100 0 -159.5 62.5t-59.5 191.5zM141 1188l183 291h225l182 -291h-192l-105 176l-108 -176h-185z" />
<glyph unicode="&#xfc;" d="M76 225v832h291v-754q0 -102 65 -102q39 0 56.5 26.5t17.5 96.5v733h291v-1057h-279v123h-4q-27 -63 -86 -107.5t-133 -44.5q-100 0 -159.5 62.5t-59.5 191.5zM170 1225v221h192v-221h-192zM510 1225v221h192v-221h-192z" />
<glyph unicode="&#xfd;" horiz-adv-x="833" d="M4 1057h305l125 -772h4l84 772h307l-274 -1215q-25 -111 -79 -161t-161 -50h-186v258h109q63 0 63 45q0 12 -12 50zM301 1188l125 291h242l-215 -291h-152z" />
<glyph unicode="&#xfe;" d="M76 -369v1831h278v-547h4q20 76 82 123t146 47q94 0 152.5 -62t58.5 -169v-651q0 -106 -58.5 -169t-152.5 -63q-86 0 -142.5 40t-72.5 100h-4v-480h-291zM367 291q0 -43 23.5 -66.5t53.5 -23.5q61 0 62 90v475q0 90 -62 90q-31 0 -54 -23.5t-23 -66.5v-475z" />
<glyph unicode="&#xff;" horiz-adv-x="833" d="M4 1057h305l125 -772h4l84 772h307l-274 -1215q-25 -111 -79 -161t-161 -50h-186v258h109q63 0 63 45q0 12 -12 50zM152 1225v221h192v-221h-192zM492 1225v221h192v-221h-192z" />
<glyph unicode="&#x152;" horiz-adv-x="1214" d="M70 315v832q0 199 89 271.5t296 72.5q63 0 108 -7t66.5 -14.5t29.5 -7.5h506v-266h-321v-299h307v-266h-307v-365h321v-266h-506q-8 0 -29.5 -7t-66.5 -14.5t-108 -7.5q-207 0 -296 72.5t-89 271.5zM369 317q0 -43 19.5 -61t66.5 -18q90 0 90 79v828q0 80 -90 80 q-47 0 -66.5 -18.5t-19.5 -61.5v-828z" />
<glyph unicode="&#x153;" horiz-adv-x="1290" d="M80 289v479q0 145 84 231t260 86q63 0 93 -2t69 -16t73 -43q47 39 92.5 50t133.5 11q166 0 253 -75.5t87 -223.5v-327h-422v-164q0 -94 77.5 -94t77.5 94v57h267v-94q0 -287 -336 -287q-84 0 -133 12.5t-92 53.5q-74 -66 -234 -66t-255 78t-95 240zM371 291 q0 -49 15 -69.5t52 -20.5q74 0 74 90v475q0 90 -74 90q-37 0 -52 -20.5t-15 -69.5v-475zM803 659h155v97q0 100 -77.5 100t-77.5 -100v-97z" />
<glyph unicode="&#x178;" horiz-adv-x="948" d="M8 1462h314l151 -526h4l150 526h313l-317 -905v-557h-299v557zM209 1589v221h192v-221h-192zM549 1589v221h192v-221h-192z" />
<glyph unicode="&#x2c6;" horiz-adv-x="454" d="M-68 1188l183 291h225l182 -291h-192l-105 176l-108 -176h-185z" />
<glyph unicode="&#x2dc;" horiz-adv-x="454" d="M-78 1212q4 88 53.5 163t130.5 75q59 0 141.5 -35t106.5 -35q27 0 41.5 23.5t14.5 58.5h127q-6 -98 -51.5 -167.5t-131.5 -69.5q-51 0 -134 34.5t-95 34.5q-39 0 -57.5 -25.5t-18.5 -56.5h-127z" />
<glyph unicode="&#x2013;" horiz-adv-x="1024" d="M0 414v229h1024v-229h-1024z" />
<glyph unicode="&#x2014;" horiz-adv-x="2048" d="M0 414v229h2048v-229h-2048z" />
<glyph unicode="&#x2018;" horiz-adv-x="436" d="M86 930v266l137 266h150l-123 -266h102v-266h-266z" />
<glyph unicode="&#x2019;" horiz-adv-x="436" d="M63 930l123 266h-102v266h266v-266l-137 -266h-150z" />
<glyph unicode="&#x201a;" horiz-adv-x="493" d="M94 -266l123 266h-102v266h266v-266l-137 -266h-150z" />
<glyph unicode="&#x201c;" horiz-adv-x="833" d="M86 930v266l137 266h150l-123 -266h102v-266h-266zM446 930v266l138 266h149l-123 -266h103v-266h-267z" />
<glyph unicode="&#x201d;" horiz-adv-x="833" d="M100 930l123 266h-102v266h266v-266l-137 -266h-150zM461 930l123 266h-103v266h267v-266l-138 -266h-149z" />
<glyph unicode="&#x201e;" horiz-adv-x="833" d="M100 -266l123 266h-102v266h266v-266l-137 -266h-150zM461 -266l123 266h-103v266h267v-266l-138 -266h-149z" />
<glyph unicode="&#x2022;" horiz-adv-x="1024" d="M145 731q-2 150 106.5 258.5t260.5 108.5t260.5 -108.5t106.5 -258.5q2 -150 -106.5 -258t-260.5 -108t-260.5 108t-106.5 258z" />
<glyph unicode="&#x2026;" horiz-adv-x="2048" d="M209 0v266h266v-266h-266zM891 0v266h266v-266h-266zM1573 0v266h266v-266h-266z" />
<glyph unicode="&#x2039;" horiz-adv-x="493" d="M41 528l199 256h213l-199 -256l199 -256h-213z" />
<glyph unicode="&#x203a;" horiz-adv-x="493" d="M41 272l199 256l-199 256h213l199 -256l-199 -256h-213z" />
<glyph unicode="&#x2122;" horiz-adv-x="2048" d="M90 1286v176h698v-176h-235v-668h-229v668h-234zM948 618v844h314l192 -512l191 512h313v-844h-217v578h-4l-201 -578h-166l-201 578h-4v-578h-217z" />
<glyph unicode="&#xe000;" horiz-adv-x="1055" d="M0 1055h1055v-1055h-1055v1055z" />
<glyph unicode="&#xfb01;" horiz-adv-x="985" d="M12 819v238h101v133q0 145 66.5 208.5t205.5 63.5h166v-237h-68q-41 0 -60.5 -17.5t-19.5 -60.5v-90h148v-238h-148v-819h-290v819h-101zM618 0v1055h291v-1055h-291zM631 1184v278h266v-278h-266z" />
<glyph unicode="&#xfb02;" horiz-adv-x="985" d="M12 819v238h101v133q0 145 66.5 208.5t205.5 63.5h166v-237h-62q-45 0 -65.5 -17.5t-20.5 -60.5v-90h148v-238h-148v-819h-290v819h-101zM618 0v1462h291v-1462h-291z" />
<glyph unicode="&#xfb03;" horiz-adv-x="1593" d="M12 819v238h101v133q0 145 66.5 208.5t205.5 63.5h172v-237h-68q-45 0 -65.5 -17.5t-20.5 -60.5v-90h154v-238h-154v-819h-290v819h-101zM582 819v238h100v133q0 145 66.5 208.5t205.5 63.5h172v-237h-67q-45 0 -65.5 -17.5t-20.5 -60.5v-90h153v-238h-153v-819h-291v819 h-100zM1221 0v1057h290v-1057h-290zM1233 1184v278h266v-278h-266z" />
<glyph unicode="&#xfb04;" horiz-adv-x="1593" d="M12 819v238h101v133q0 145 66.5 208.5t205.5 63.5h172v-237h-68q-45 0 -65.5 -17.5t-20.5 -60.5v-90h154v-238h-154v-819h-290v819h-101zM582 819v238h100v133q0 145 66.5 208.5t205.5 63.5h172v-237h-67q-45 0 -65.5 -17.5t-20.5 -60.5v-90h153v-238h-153v-819h-291v819 h-100zM1221 0v1462h290v-1462h-290z" />
</font>
</defs>
</svg>
