<?xml version="1.0" standalone="no"?>
<!DOCTYPE svg PUBLIC "-//W3C//DTD SVG 1.1//EN" "http://www.w3.org/Graphics/SVG/1.1/DTD/svg11.dtd" >
<svg xmlns="http://www.w3.org/2000/svg">
<metadata>
This is a custom SVG webfont generated by Font Squirrel.
Copyright   : Copyright c 1989 1995 Adobe Systems Incorporated  All Rights ReservedFolio is a registered trademark of Fundicion Tipografica Neufville SA
</metadata>
<defs>
<font id="FolioBold" horiz-adv-x="1327" >
<font-face units-per-em="2048" ascent="1638" descent="-410" />
<missing-glyph horiz-adv-x="681" />
<glyph unicode=" "  horiz-adv-x="681" />
<glyph unicode="&#x09;" horiz-adv-x="681" />
<glyph unicode="&#xa0;" horiz-adv-x="681" />
<glyph unicode="!" horiz-adv-x="757" d="M160 1384h438l-59 -976h-328zM186 0v258h377v-258h-377z" />
<glyph unicode="&#x22;" horiz-adv-x="681" d="M31 909v553h245v-553h-245zM406 909v553h245v-553h-245z" />
<glyph unicode="#" horiz-adv-x="1366" d="M176 389l8 189h195l33 229h-174l8 188h192l56 389h204l-55 -389h186l56 389h205l-56 -389h158l-8 -188h-176l-33 -229h155l-8 -189h-176l-55 -389h-205l55 389h-186l-55 -389h-205l55 389h-174zM584 578h186l33 229h-187z" />
<glyph unicode="$" horiz-adv-x="1366" d="M57 410h406q0 -213 231 -213q209 0 209 184q0 61 -44 96t-114.5 48.5t-155.5 23.5t-169 31.5t-154.5 59.5t-115 119t-44.5 199q0 186 127 314.5t363 146.5v223h164v-221q240 -14 366.5 -124.5t126.5 -276.5h-385q-4 82 -54 125t-132 43q-88 0 -141.5 -44t-53.5 -130 q0 -55 45.5 -88t116 -46.5t157.5 -24.5t173 -33.5t156.5 -62.5t115.5 -124t45 -207q0 -197 -138 -322.5t-398 -142.5v-270h-164v270q-137 12 -254 59.5t-201 148t-84 239.5z" />
<glyph unicode="%" horiz-adv-x="1820" d="M70 1044.5q0 178.5 90 277.5t243 99q156 0 245 -99t89 -278q0 -180 -89 -279t-245 -99q-154 0 -243.5 100t-89.5 278.5zM221 -37l1139 1458h217l-1137 -1458h-219zM299 1044q0 -248 104.5 -247.5t104.5 247.5q0 246 -104.5 246t-104.5 -246zM1053 342q0 178 90 277.5 t243 99.5q156 0 245 -99.5t89 -277.5q0 -180 -89 -279.5t-245 -99.5q-154 0 -243.5 100.5t-89.5 278.5zM1282 342q0 -248 104.5 -248t104.5 248q0 246 -104.5 246t-104.5 -246z" />
<glyph unicode="&#x26;" horiz-adv-x="1517" d="M76 362q0 66 24.5 126.5t73.5 111.5t92 86t107 80q-184 180 -185 317q0 96 47.5 164t126 102.5t158.5 49t170 14.5q106 0 204.5 -32.5t170.5 -111.5t72 -190q0 -186 -287 -358l209 -234q2 2 12 18l21 32q10 16 10 18h352q-8 -23 -18.5 -44.5t-26.5 -45.5l-26 -38 q-9 -13 -34.5 -42t-31.5 -35l-37 -38.5t-33 -35.5l250 -276h-446l-64 74q-188 -106 -377 -107q-256 0 -395 103.5t-139 291.5zM465 367q2 -72 49 -113t117 -41q94 0 182 57l-235 267q-111 -70 -113 -170zM557 1108q0 -10 2 -20.5t4 -19.5t7 -19.5l8.5 -17.5t11.5 -17 t11 -15.5t13.5 -15.5t13.5 -14t14 -16l13 -13q8 8 37 30.5t42.5 36t27.5 38t14 49.5q0 49 -27.5 80.5t-76.5 33.5h-6q-38 0 -72 -27q-37 -30 -37 -73z" />
<glyph unicode="'" horiz-adv-x="454" d="M104 905v557h246v-557h-246z" />
<glyph unicode="(" horiz-adv-x="796" d="M90 731q0 125 11.5 219t52.5 195.5t109.5 167t190 107.5t289.5 42v-262q-66 0 -110.5 -23.5t-71 -61.5t-40 -102.5t-17.5 -126t-4 -155.5t4 -155.5t17.5 -126t40 -102.5t71.5 -61.5t110 -23.5v-262q-168 0 -289.5 42t-190 107.5t-109.5 167t-52.5 195.5t-11.5 219z" />
<glyph unicode=")" horiz-adv-x="796" d="M53 0v262q66 0 111 23.5t71.5 61.5t40 102.5t17.5 126t4 155.5t-4 155.5t-17.5 126t-40 102.5t-71.5 61.5t-111 23.5v262q168 0 290 -42t190.5 -107.5t109.5 -167t52.5 -195.5t11.5 -219t-11.5 -219t-52.5 -195.5t-109.5 -167t-190.5 -107.5t-290 -42z" />
<glyph unicode="*" horiz-adv-x="833" d="M57 1243l127 90l201 -172l4 4l-86 250l123 92l121 -92l-101 -250l5 -4l204 172l121 -90l-47 -131h-270l-4 -4l225 -143l-45 -146h-160l-61 264h-4l-74 -264h-150l-45 146l232 143l-4 4h-269z" />
<glyph unicode="+" horiz-adv-x="1228" d="M133 367v229h367v367h229v-367h367v-229h-367v-367h-229v367h-367z" />
<glyph unicode="," horiz-adv-x="681" d="M152 0v365h376v-302q-4 -141 -84 -284h-274q88 94 88 206v15h-106z" />
<glyph unicode="-" horiz-adv-x="681" d="M113 358v246h458v-246h-458z" />
<glyph unicode="." horiz-adv-x="681" d="M152 0v365h376v-365h-376z" />
<glyph unicode="/" horiz-adv-x="1024" d="M74 -45l643 1552h231l-643 -1552h-231z" />
<glyph unicode="0" horiz-adv-x="1366" d="M70 692q0 344 164.5 536.5t447.5 192.5q285 0 449.5 -192.5t164.5 -536.5t-164.5 -536.5t-449.5 -192.5q-283 0 -447.5 192.5t-164.5 536.5zM483 692.5q0 -243.5 46 -365.5t153 -122q109 0 155 122t46 365.5t-46 365.5t-155 122q-106 0 -152.5 -122t-46.5 -365.5z" />
<glyph unicode="1" horiz-adv-x="1366" d="M225 1036l406 348h375v-1384h-394v1008l-221 -181z" />
<glyph unicode="2" horiz-adv-x="1366" d="M80 0q2 131 47 235.5t114.5 171t153.5 121t167 99.5t151.5 91t111.5 110.5t43 146.5q0 104 -41 152.5t-133 48.5q-109 0 -151.5 -60.5t-46.5 -179.5h-398q0 217 152.5 351t431.5 134q299 0 449.5 -132t150.5 -343q0 -127 -72.5 -226t-176 -156.5t-206 -103.5t-175 -91 t-72.5 -95h643v-274h-1143z" />
<glyph unicode="3" horiz-adv-x="1366" d="M57 412h410q12 -207 221 -207q88 0 145.5 54t57.5 142q0 215 -195 215h-145v230q131 -8 207 12q115 31 114 152q0 82 -52 126t-136 44q-80 0 -130 -46.5t-50 -125.5h-410q0 113 58.5 196.5t153.5 128.5t199.5 66.5t215.5 21.5q137 0 262 -42t212 -136t87 -221 q0 -98 -84 -191.5t-190 -93.5v-4q127 0 209.5 -108.5t82.5 -235.5q0 -131 -87 -230.5t-215 -147.5t-271 -48q-297 0 -483.5 123t-186.5 326z" />
<glyph unicode="4" horiz-adv-x="1366" d="M51 319v273l645 792h471v-782h160v-283h-160v-319h-393v319h-723zM420 602h354v442h-4z" />
<glyph unicode="5" horiz-adv-x="1366" d="M100 381h400q0 -88 53 -131q55 -45 131 -45q96 0 148.5 67.5t52.5 198.5q0 270 -197 270q-109 0 -160 -102h-366v745h1018v-282h-650v-217q109 70 265 69q76 0 155.5 -22.5t160.5 -72.5t132 -148.5t51 -231.5q0 -219 -155.5 -367.5t-442.5 -148.5q-299 0 -447.5 123 t-148.5 295z" />
<glyph unicode="6" horiz-adv-x="1366" d="M72 692q0 348 174 538.5t475 190.5q500 0 563 -368h-389q-8 61 -58.5 100t-113.5 39q-74 0 -124 -32t-73.5 -89t-32 -113.5t-8.5 -128.5h4q100 129 330 129q266 0 384 -129t118 -333q0 -260 -177 -396.5t-433 -136.5q-88 0 -167 14.5t-169 61.5t-153.5 124t-106.5 213 t-43 316zM502 461q0 -256 203 -256q96 0 149 65.5t53 190.5q0 256 -202 256q-90 0 -146.5 -63.5t-56.5 -192.5z" />
<glyph unicode="7" horiz-adv-x="1366" d="M176 1102v282h1032v-274q-270 -383 -391 -1110h-428q109 575 442 1102h-655z" />
<glyph unicode="8" horiz-adv-x="1366" d="M72 408q0 115 65.5 209t179.5 133v4q-213 45 -213 270q0 166 157 281.5t427 115.5q266 0 421 -113.5t155 -260.5q0 -115 -50.5 -194t-138.5 -99q229 -106 230 -346q0 -176 -171 -310.5t-446 -134.5q-170 0 -297 41t-192.5 109.5t-96 141.5t-30.5 153zM489 406 q0 -90 52.5 -145.5t146.5 -55.5q96 0 147.5 56t51.5 157q0 92 -48 152.5t-151 60.5q-199 0 -199 -225zM498 1012q0 -86 52 -131t138 -45q76 0 129 47t53 129q0 80 -50 132t-132 52q-86 0 -138 -46t-52 -138z" />
<glyph unicode="9" horiz-adv-x="1366" d="M45 889q0 260 177 396t433 136q88 0 167 -14t169 -61.5t153.5 -124t106.5 -213t43 -316.5q0 -348 -174 -538.5t-475 -190.5q-500 0 -563 369h389q8 -61 58.5 -100t113.5 -39q74 0 124 31.5t73.5 89t32 113.5t8.5 128h-4q-100 -129 -330 -129q-266 0 -384 129t-118 334z M459 924q0 -256 203 -256q90 0 146 63.5t56 192.5q0 256 -202 256q-96 0 -149.5 -65.5t-53.5 -190.5z" />
<glyph unicode=":" horiz-adv-x="681" d="M152 0v365h376v-365h-376zM152 526v365h376v-365h-376z" />
<glyph unicode=";" horiz-adv-x="681" d="M152 0v365h376v-302q-4 -141 -84 -286h-274q88 98 88 209v14h-106zM152 526v365h376v-365h-376z" />
<glyph unicode="&#x3c;" horiz-adv-x="1228" d="M133 393v178l963 408v-217l-668 -281l668 -276v-221z" />
<glyph unicode="=" horiz-adv-x="1228" d="M133 145v230h963v-230h-963zM133 588v229h963v-229h-963z" />
<glyph unicode="&#x3e;" horiz-adv-x="1228" d="M133 -16v221l668 276l-668 281v217l963 -408v-178z" />
<glyph unicode="?" horiz-adv-x="1290" d="M49 940q16 481 602 481q94 0 186.5 -21.5t178.5 -63.5t139 -119.5t53 -180.5q0 -82 -33.5 -153.5t-83 -122.5t-98.5 -94t-85 -84t-38 -76l-6 -98h-379q-1 9 0 21q0 18 1 44q3 43 3 59q0 63 48.5 131t105.5 116t104.5 117t47.5 134q0 72 -50.5 115t-121.5 43 q-98 0 -139 -73q-35 -63 -34 -148q0 -13 1 -27h-402zM485 0v258h377v-258h-377z" />
<glyph unicode="@" horiz-adv-x="1638" d="M45 729q0 332 235.5 555t573.5 223q188 0 356 -74.5t276.5 -222t108.5 -333.5q0 -135 -39.5 -244t-100 -173.5t-135.5 -107.5t-138.5 -58t-116.5 -15q-127 0 -129 100l-4 4q-90 -104 -203 -104q-137 0 -242.5 110.5t-105.5 261.5q0 190 118.5 332.5t305.5 142.5 q170 0 260 -122l18 102h201l-92 -498q-13 -47 -14 -75q0 -40 28 -39q76 0 136.5 80.5t60.5 234.5q0 244 -152.5 373t-404.5 129q-260 0 -418 -162t-158 -420q0 -268 170 -422.5t445 -154.5q240 0 399 118h209q-233 -315 -627 -315q-342 0 -581.5 220t-239.5 554zM631 684 q0 -76 42 -124t115 -48q96 0 156 64.5t60 154.5q0 76 -46.5 123t-121.5 47q-86 0 -145.5 -66.5t-59.5 -150.5z" />
<glyph unicode="A" horiz-adv-x="1705" d="M25 0l577 1462h516l563 -1462h-448l-98 289h-557l-101 -289h-452zM678 571h356l-172 527h-4z" />
<glyph unicode="B" horiz-adv-x="1593" d="M135 0v1462h772q262 0 396.5 -91t134.5 -257q0 -141 -62.5 -218t-204.5 -114v-4q156 -20 243 -112.5t87 -247.5q0 -78 -25.5 -144.5t-86 -132t-185.5 -103.5t-303 -38h-766zM553 291h250q162 0 221 37t59 123q0 90 -44 124.5t-150 34.5h-336v-319zM553 893h274 q109 0 151 36t42 107q0 68 -42 101.5t-151 33.5h-274v-278z" />
<glyph unicode="C" horiz-adv-x="1669" d="M78 731q0 373 230.5 574.5t602.5 201.5q281 0 475.5 -137t221.5 -387h-428q-14 111 -92 176.5t-207 65.5q-154 0 -249 -129t-95 -364.5t95 -364.5t249 -129q137 0 212.5 75.5t90.5 208.5h434q-23 -152 -88.5 -264.5t-162.5 -177t-210 -95t-246 -30.5q-373 0 -603 201.5 t-230 574.5z" />
<glyph unicode="D" horiz-adv-x="1705" d="M135 0v1462h629q428 0 646 -178t218 -553t-218 -553t-646 -178h-629zM553 299h235q397 0 397.5 432t-397.5 432h-235v-864z" />
<glyph unicode="E" d="M135 0v1462h1106v-299h-688v-254h565v-299h-565v-311h688v-299h-1106z" />
<glyph unicode="F" d="M147 0v1462h1133v-299h-711v-254h578v-299h-582v-610h-418z" />
<glyph unicode="G" horiz-adv-x="1705" d="M78 688q0 225 88 408.5t271.5 297t434.5 113.5q137 0 249 -22.5t216.5 -75.5t174 -158.5t96.5 -257.5h-408q-31 123 -100.5 183.5t-194.5 60.5q-182 0 -275 -124t-93 -394q0 -260 91 -383t232 -123q121 0 204 65.5t112 186.5h-242v225h668v-690h-318l-22 160 q-145 -205 -494 -205q-307 0 -498.5 212t-191.5 521z" />
<glyph unicode="H" horiz-adv-x="1630" d="M135 0v1462h418v-553h524v553h418v-1462h-418v610h-524v-610h-418z" />
<glyph unicode="I" horiz-adv-x="720" d="M152 0v1462h417v-1462h-417z" />
<glyph unicode="J" d="M43 414h424q0 -78 41 -125q41 -51 127 -51q160 0 160 229v995h417v-989q0 -518 -585 -518q-121 0 -221.5 22.5t-184.5 72.5t-131 142.5t-47 221.5z" />
<glyph unicode="K" horiz-adv-x="1630" d="M135 0v1462h418v-565l557 565h530l-555 -544l551 -918h-475l-377 649l-231 -223v-426h-418z" />
<glyph unicode="L" d="M147 0v1462h418v-1163h692v-299h-1110z" />
<glyph unicode="M" horiz-adv-x="2048" d="M137 0v1462h606l279 -970h4l270 970h615v-1462h-373v1053h-4l-295 -1053h-430l-295 1053h-4v-1053h-373z" />
<glyph unicode="N" horiz-adv-x="1744" d="M137 0v1462h584l475 -979h6v979h406v-1462h-582l-479 932h-4v-932h-406z" />
<glyph unicode="O" horiz-adv-x="1820" d="M78 731q0 373 230.5 574.5t602.5 201.5q371 0 601.5 -201.5t230.5 -574.5t-230.5 -574.5t-601.5 -201.5q-373 0 -603 201.5t-230 574.5zM537 731.5q0 -239.5 100 -366.5t274 -127t273.5 127t99.5 366.5t-99.5 366.5t-273.5 127t-274 -127t-100 -366.5z" />
<glyph unicode="P" horiz-adv-x="1517" d="M135 0v1462h686q639 0 639 -491q0 -242 -150.5 -370t-488.5 -128h-268v-473h-418zM553 772h250q227 0 227 199q0 193 -227 192h-250v-391z" />
<glyph unicode="Q" horiz-adv-x="1820" d="M78 731q0 373 230.5 574.5t602.5 201.5q371 0 601.5 -201.5t230.5 -574.5q0 -322 -174 -517.5t-469 -242.5v-82q0 -70 74 -69h153v-242h-242q-199 0 -282.5 34t-83.5 148v211q-293 47 -467 242.5t-174 517.5zM537 731.5q0 -239.5 100 -366.5t274 -127t273.5 127 t99.5 366.5t-99.5 366.5t-273.5 127t-274 -127t-100 -366.5z" />
<glyph unicode="R" horiz-adv-x="1554" d="M135 1462h701q154 0 268.5 -21.5t181 -55t107.5 -86t55 -103.5t14 -125q0 -150 -76 -231q-78 -84 -186 -105v-4q106 -31 166.5 -89t60.5 -169v-172q0 -143 12.5 -204.5t59.5 -96.5h-448q-41 68 -41 178v211q0 104 -42 143t-173 39h-242v-571h-418v1462zM553 870h350 q53 0 98 42q43 40 44 98q0 71 -41 113q-39 40 -101 40h-350v-293z" />
<glyph unicode="S" horiz-adv-x="1554" d="M59 442h418q0 -66 19.5 -111.5t48 -70t72.5 -39t80 -17.5t85 -3q270 0 271 172q0 66 -53.5 105.5t-137.5 58t-186.5 33t-204.5 41t-186 70.5t-137.5 134t-53.5 221q0 70 19.5 133.5t69.5 126t127 108.5t202 74.5t285 28.5q252 0 432 -115.5t196 -355.5h-417 q-18 225 -252 226q-244 0 -244 -175q0 -55 53.5 -89.5t137 -53t186 -36t205 -45t186.5 -70.5t137 -125t53 -197q0 -250 -184 -383t-520 -133q-693 0 -707 487z" />
<glyph unicode="T" horiz-adv-x="1366" d="M29 1147v315h1306v-315h-444v-1147h-418v1147h-444z" />
<glyph unicode="U" horiz-adv-x="1669" d="M135 475v987h418v-870q0 -199 60.5 -275.5t220.5 -78.5q160 2 220 78.5t60 275.5l2 870h418v-987q0 -250 -160 -383t-540 -137q-381 4 -540 137t-159 383z" />
<glyph unicode="V" horiz-adv-x="1669" d="M18 1462h437l368 -1065h4l375 1065h451l-578 -1462h-491z" />
<glyph unicode="W" horiz-adv-x="2048" d="M49 1462h391l166 -1026h4l187 1026h460l181 -1026h4l180 1026h377l-320 -1462h-448l-205 1024h-4l-191 -1024h-466z" />
<glyph unicode="X" horiz-adv-x="1478" d="M25 0l487 752l-461 710h457l242 -409l241 409h445l-463 -710l479 -752h-457l-254 434l-272 -434h-444z" />
<glyph unicode="Y" horiz-adv-x="1593" d="M12 1462h465l328 -575l321 575h453l-580 -934v-528h-417v528z" />
<glyph unicode="Z" horiz-adv-x="1441" d="M74 0v293l776 870h-752v299h1260v-293l-776 -870h786v-299h-1294z" />
<glyph unicode="[" horiz-adv-x="833" d="M160 0v1462h592v-282h-183v-897h183v-283h-592z" />
<glyph unicode="\" horiz-adv-x="569" d="M-152 1507h232l643 -1552h-231z" />
<glyph unicode="]" horiz-adv-x="833" d="M82 0v283h182v897h-182v282h592v-1462h-592z" />
<glyph unicode="^" horiz-adv-x="1228" d="M150 637l356 747h217l356 -747h-239l-226 508l-227 -508h-237z" />
<glyph unicode="_" horiz-adv-x="1024" d="M0 -154h1024v-102h-1024v102z" />
<glyph unicode="`" horiz-adv-x="569" d="M-94 1386h370l201 -299h-248z" />
<glyph unicode="a" horiz-adv-x="1251" d="M53 260q0 164 106.5 241t348.5 77q256 0 256 114q0 119 -145.5 119t-151.5 -123h-377q51 315 496 316q299 0 418.5 -102.5t119.5 -301.5v-348q0 -178 68 -252h-397q-20 35 -29 135h-4q-55 -88 -154.5 -132t-183.5 -44q-57 0 -113.5 12.5t-119 43t-100.5 94t-38 151.5z M438 284.5q0 -55.5 40 -88t91 -32.5q72 0 124 42t57 95l12 201q-27 -29 -85.5 -49.5t-108.5 -31.5t-90 -46t-40 -90.5z" />
<glyph unicode="b" horiz-adv-x="1366" d="M129 0v1462h393v-571q111 113 322 113q127 -2 222 -53.5t145.5 -133.5t73 -169t22.5 -179q0 -225 -146.5 -367.5t-326.5 -142.5q-238 0 -334 156h-4v-115h-367zM522 481q0 -129 51.5 -196.5t135.5 -67.5t134 67.5t50 196.5t-50 196.5t-134 67.5t-135.5 -67.5 t-51.5 -196.5z" />
<glyph unicode="c" horiz-adv-x="1251" d="M66 487q0 201 156.5 359t428.5 158q211 0 364.5 -102.5t184.5 -278.5h-405q-12 68 -45 102q-37 37 -103 37q-78 0 -123 -68.5t-45 -197.5q0 -170 47 -232.5t125 -62.5q82 0 116 40t40 111h393q-14 -207 -182 -307q-143 -86 -375 -86q-252 0 -414.5 140t-162.5 388z" />
<glyph unicode="d" horiz-adv-x="1366" d="M72 469q0 92 22.5 179t72.5 169t145.5 133t222.5 54q211 0 321 -113v571h393v-1462h-366v115h-4q-96 -156 -334 -156q-180 0 -326.5 142.5t-146.5 367.5zM485 481q0 -129 50.5 -196.5t134.5 -67.5t135 67.5t51 196.5t-51 196.5t-135 67.5t-134.5 -67.5t-50.5 -196.5z" />
<glyph unicode="e" horiz-adv-x="1251" d="M53 465q0 258 159 398.5t419 140.5q156 0 272.5 -53.5t179 -142.5t89.5 -192q21 -79 22 -162q0 -25 -2 -51h-770q20 -231 209 -231q59 0 108 33t68 86h364q-57 -164 -208.5 -248t-335.5 -84q-242 0 -408 133t-166 373zM422 608h403q-10 82 -64 136.5t-136 54.5 q-84 0 -138.5 -53.5t-64.5 -137.5z" />
<glyph unicode="f" horiz-adv-x="796" d="M47 705v258h131v172q0 195 87 277.5t253 82.5q168 0 283 -45v-240q-57 23 -113 23q-49 0 -83 -31t-34 -78v-161h226v-258h-226v-705h-393v705h-131z" />
<glyph unicode="g" d="M47 492q0 76 15.5 146.5t51.5 138t89 116.5t135 80t184 31q195 0 312 -123v82h366v-992q0 -178 -148.5 -291.5t-412.5 -113.5q-281 0 -385 71.5t-129 247.5h412q2 -41 43 -73q35 -29 75 -29q63 0 109.5 44t46.5 155v114h-4q-49 -68 -126 -86t-181 -18q-205 0 -329 118 t-124 382zM461 485q0 -133 53 -192.5t127 -59.5q72 0 125 59.5t53 192.5t-53 192.5t-125 59.5q-74 0 -127 -59.5t-53 -192.5z" />
<glyph unicode="h" d="M135 0v1462h391v-651q82 193 336 193q133 0 237.5 -90.5t110.5 -254.5v-659h-393v575q0 145 -131 146q-68 0 -113 -51.5t-45 -120.5v-549h-393z" />
<glyph unicode="i" horiz-adv-x="645" d="M127 0v963h393v-963h-393zM127 1110v352h393v-352h-393z" />
<glyph unicode="j" horiz-adv-x="645" d="M-82 -162q53 -14 92 -14q117 0 117 102v1037h393v-1051q0 -346 -381 -346q-88 0 -221 26v246zM127 1110v352h393v-352h-393z" />
<glyph unicode="k" horiz-adv-x="1290" d="M133 0v1462h393v-782l254 283h471l-329 -336l364 -627h-442l-197 377l-123 -119v-258h-391z" />
<glyph unicode="l" horiz-adv-x="645" d="M127 0v1462h393v-1462h-393z" />
<glyph unicode="m" horiz-adv-x="1933" d="M135 0v963h377v-140h4q45 94 133 137.5t176 43.5q203 0 293 -173q43 84 128 128.5t177 44.5q395 0 396 -414v-590h-394v590q0 131 -125 131q-127 0 -126 -131v-590h-394v590q0 131 -125 131q-127 0 -127 -131v-590h-393z" />
<glyph unicode="n" d="M135 0v963h387v-164h4q74 205 336 205q133 0 237.5 -90.5t110.5 -254.5v-659h-393v575q0 145 -131 146q-68 0 -113 -51.5t-45 -120.5v-549h-393z" />
<glyph unicode="o" d="M55 481.5q0 229.5 157 376t451.5 146.5t451.5 -146.5t157 -376t-157 -376t-451.5 -146.5t-451.5 146.5t-157 376zM469 481q0 -297 194.5 -297t194.5 297t-194.5 297t-194.5 -297z" />
<glyph unicode="p" horiz-adv-x="1366" d="M129 -422v1385h367v-115h4q96 156 334 156q180 0 326.5 -142.5t146.5 -367.5q0 -92 -22.5 -179.5t-73 -169.5t-145.5 -133t-222 -53q-213 0 -322 115v-496h-393zM522 481q0 -129 51.5 -196.5t135.5 -67.5t134 67.5t50 196.5t-50 196.5t-134 67.5t-135.5 -67.5 t-51.5 -196.5z" />
<glyph unicode="q" horiz-adv-x="1366" d="M59 494q0 225 146.5 367.5t326.5 142.5q238 0 334 -156h4v115h367v-1385h-393v496q-109 -115 -322 -115q-127 2 -222 53t-145.5 133t-73 169.5t-22.5 179.5zM473 481q0 -129 50 -196.5t134 -67.5t135.5 67.5t51.5 196.5t-51.5 196.5t-135.5 67.5t-134 -67.5t-50 -196.5z " />
<glyph unicode="r" horiz-adv-x="948" d="M139 0v963h379v-160h4q61 117 145.5 159t268.5 42v-381q-68 27 -143 26q-137 0 -199 -66.5t-62 -201.5v-381h-393z" />
<glyph unicode="s" horiz-adv-x="1175" d="M76 264h364q10 -63 43 -96q39 -33 105 -33q147 0 147 115q0 43 -48 67.5t-118.5 31.5t-154.5 21.5t-155 37t-119 83t-48 152.5q0 184 144.5 272.5t392.5 88.5q86 0 159.5 -14.5t141 -48.5t108.5 -98.5t45 -154.5h-364q6 66 -29 100q-33 37 -100 39q-51 0 -92 -22.5 t-41 -71.5q0 -55 66.5 -82.5t162.5 -40t191.5 -35t162 -90t66.5 -182.5q0 -98 -49 -169t-132 -106.5t-170 -52t-184 -16.5q-82 0 -160.5 14.5t-158.5 46t-128 94t-48 150.5z" />
<glyph unicode="t" horiz-adv-x="796" d="M33 705v258h131v303h391v-303h217v-258h-217v-375q0 -55 28.5 -80t92.5 -25q47 0 76 13v-238q-129 -41 -250 -41q-340 0 -340 264v482h-129z" />
<glyph unicode="u" d="M135 303v660h393v-576q0 -145 131 -145q68 0 113 51t45 121v549h393v-963h-387v164h-4q-74 -205 -336 -205q-133 0 -237.5 90t-110.5 254z" />
<glyph unicode="v" horiz-adv-x="1214" d="M18 963h394l194 -664h4l191 664h393l-342 -963h-492z" />
<glyph unicode="w" horiz-adv-x="1857" d="M33 963h377l122 -603h5l190 603h401l191 -603h4l123 603h377l-291 -963h-422l-184 598l-181 -598h-421z" />
<glyph unicode="x" horiz-adv-x="1175" d="M10 0l352 500l-294 463h426l133 -254l131 254h393l-313 -463l325 -500h-442l-154 274l-145 -274h-412z" />
<glyph unicode="y" horiz-adv-x="1214" d="M8 963h414l205 -631h4l180 631h393l-360 -963q-53 -143 -89 -216t-91.5 -125t-121 -66.5t-175.5 -14.5q-92 0 -189 19v241q43 -14 80 -14q72 0 114 38t85 138z" />
<glyph unicode="z" horiz-adv-x="1062" d="M59 0v238l451 467h-422v258h903v-238l-442 -467h455v-258h-945z" />
<glyph unicode="{" horiz-adv-x="796" d="M51 602v262h60q57 0 74.5 19.5t17.5 77.5v325q0 92 46 134t157 42h380v-262h-94q-43 0 -61.5 -19.5t-18.5 -68.5v-227q0 -150 -166 -150v-4q166 0 166 -153v-228q0 -49 18.5 -68.5t61.5 -19.5h94v-262h-380q-111 0 -157 42t-46 134v330q0 57 -17.5 76.5t-74.5 19.5h-60z " />
<glyph unicode="|" horiz-adv-x="454" d="M113 -512v2048h229v-2048h-229z" />
<glyph unicode="}" horiz-adv-x="796" d="M10 0v262h94q43 0 61.5 19.5t18.5 68.5v228q0 154 166 153v4q-166 0 -166 150v227q0 49 -18.5 68.5t-61.5 19.5h-94v262h381q111 0 157 -42t46 -134v-325q0 -57 17.5 -77t74.5 -20h59v-262h-59q-57 0 -74.5 -19.5t-17.5 -76.5v-330q0 -92 -46 -134t-157 -42h-381z" />
<glyph unicode="~" horiz-adv-x="1228" d="M133 487q96 176 260 177q84 0 232 -66q170 -74 213 -74q39 0 74.5 24.5t56 50.5t53.5 73l74 -197q-39 -55 -68 -87t-81 -60.5t-111 -28.5q-90 0 -213 68q-131 72 -240 71q-104 0 -176 -147z" />
<glyph unicode="&#xa1;" horiz-adv-x="757" d="M160 -397l59 977h328l51 -977h-438zM195 729v258h376v-258h-376z" />
<glyph unicode="&#xa2;" horiz-adv-x="1366" d="M117 492q0 180 132 331.5t365 180.5v237h152v-237q182 -16 327.5 -120t153.5 -257h-405q-8 76 -47 108q-37 31 -111 31q-72 0 -113 -77t-41 -191q0 -170 48.5 -231.5t132.5 -61.5q76 0 108.5 40t38.5 111h393q-14 -203 -184 -305q-121 -74 -301 -84v-266h-152v268 q-221 20 -359 158t-138 365z" />
<glyph unicode="&#xa3;" horiz-adv-x="1366" d="M74 195l164 178q37 62 37 117q0 42 -21 79h-160v205h103q-57 160 -58 236q0 195 159 303t392 108q549 0 584 -417h-402q0 8 1 15q0 74 -35 111q-39 45 -121 46q-172 0 -172 -187q0 -94 33 -215h274v-205h-254q0 -176 -127 -293l4 -4q54 23 108 23q13 0 26 -1 q67 -7 128.5 -20.5t108.5 -25.5q18 -5 34 -5q24 0 42 12q29 19 28 77h387q-27 -195 -119 -282t-208 -87q-106 0 -244.5 49t-230.5 49q-41 0 -65 -1t-45.5 -11t-29.5 -16t-36 -31l-44 -39z" />
<glyph unicode="&#xa4;" horiz-adv-x="1366" d="M147 291l115 115q-86 92 -86 286.5t86 286.5l-115 115l140 139l119 -119q94 86 278 86t279 -86l118 119l140 -139l-115 -115q86 -92 86 -286.5t-86 -286.5l115 -115l-140 -139l-118 118q-94 -86 -278.5 -86t-278.5 86l-119 -118zM422 692.5q0 -112.5 69.5 -197.5 t192.5 -85t192.5 85t69.5 197.5t-69.5 197.5t-192.5 85t-192.5 -85t-69.5 -197.5z" />
<glyph unicode="&#xa5;" horiz-adv-x="1366" d="M20 1384h406l266 -497l254 497h397l-239 -421h211v-205h-330l-96 -168h426v-205h-461v-385h-352v385h-461v205h428l-96 168h-332v205h217z" />
<glyph unicode="&#xa6;" horiz-adv-x="454" d="M113 358h229v-716h-229v716zM113 666v716h229v-716h-229z" />
<glyph unicode="&#xa7;" horiz-adv-x="1366" d="M74 487q0 125 75.5 222.5t192.5 107.5v4q-88 39 -122 96.5t-34 147.5q0 160 127 258t416 98q193 0 330 -89t145 -259h-377q-4 55 -41 90q-35 33 -96 33q-49 0 -88 -28.5t-39 -75.5q0 -53 40 -86t104.5 -47.5t141.5 -26.5t154.5 -35t142 -60.5t104.5 -115.5t40 -189 q0 -123 -80 -221t-200 -108v-4q174 -80 174 -267q0 -98 -55.5 -168.5t-145.5 -103.5t-176 -47t-176 -14q-125 0 -222.5 26.5t-174 104t-91.5 200.5h377q6 -51 44 -89t98 -38q49 0 89 31t40 94q0 53 -40 86t-102.5 47.5t-139.5 26.5t-153.5 34.5t-139 60.5t-102.5 115.5 t-40 188.5zM492 520q0 -98 48 -154.5t136 -56.5q98 0 149.5 59.5t51.5 145.5q0 88 -55.5 142.5t-145.5 54.5q-78 0 -131 -51.5t-53 -139.5z" />
<glyph unicode="&#xa8;" horiz-adv-x="569" d="M-88 1106v258h311v-258h-311zM346 1106v258h311v-258h-311z" />
<glyph unicode="&#xa9;" horiz-adv-x="1638" d="M37 731.5q0 237.5 111.5 417.5t287.5 269t383 89q205 0 381 -89t289 -269t113 -417.5t-113 -418t-289 -269.5t-381 -89q-207 0 -383 89t-287.5 269.5t-111.5 418zM287 731q0 -256 153.5 -420t378.5 -164q221 0 377 164t156 420t-156 420t-377 164q-225 0 -378.5 -164 t-153.5 -420zM434 737q0 197 111.5 323t300.5 126q141 0 237.5 -83t118.5 -237h-182q-25 127 -174 127q-90 0 -138.5 -67.5t-48.5 -184.5q0 -113 52.5 -184.5t138.5 -71.5q162 0 170 131h190q-20 -156 -120.5 -239.5t-239.5 -83.5q-186 0 -301 127t-115 317z" />
<glyph unicode="&#xaa;" horiz-adv-x="751" d="M4 975q0 98 68.5 144t226.5 46q166 0 166 70q0 72 -94 72q-92 0 -99 -74h-243q33 188 321 188q195 0 272.5 -61.5t77.5 -179.5v-209q0 -109 43 -152h-258q-14 25 -18 82h-2q-37 -53 -100.5 -79.5t-118.5 -26.5q-37 0 -74 7t-78 25.5t-65.5 56.5t-24.5 91zM254 989 q0 -33 25.5 -52t60.5 -19q47 0 81 25.5t36 55.5l8 121q-20 -20 -75.5 -33.5t-95.5 -34t-40 -63.5z" />
<glyph unicode="&#xab;" horiz-adv-x="1214" d="M70 481l215 226h336l-213 -226l213 -225h-336zM594 481l215 226h336l-213 -226l213 -225h-336z" />
<glyph unicode="&#xac;" horiz-adv-x="1228" d="M133 588v229h963v-672h-230v443h-733z" />
<glyph unicode="&#xad;" horiz-adv-x="681" d="M113 358v246h458v-246h-458z" />
<glyph unicode="&#xae;" horiz-adv-x="1638" d="M37 731.5q0 237.5 111.5 417.5t287.5 269t383 89q205 0 381 -89t289 -269t113 -417.5t-113 -418t-289 -269.5t-381 -89q-207 0 -383 89t-287.5 269.5t-111.5 418zM287 731q0 -256 153.5 -420t378.5 -164q221 0 377 164t156 420t-156 420t-377 164q-225 0 -378.5 -164 t-153.5 -420zM512 311v844h305q172 0 258 -57.5t86 -200.5q0 -113 -58.5 -164t-170.5 -55l209 -367h-189l-184 353h-72v-353h-184zM696 815h158q57 0 84 21.5t27 81.5q0 86 -152 86h-117v-189z" />
<glyph unicode="&#xaf;" horiz-adv-x="569" d="M-49 1149v172h667v-172h-667z" />
<glyph unicode="&#xb0;" horiz-adv-x="819" d="M117 1128.5q0 120.5 86 206.5t206.5 86t206.5 -86t86 -206.5t-86 -206.5t-206.5 -86t-206.5 86t-86 206.5zM260 1128.5q0 -61.5 44 -105.5t105.5 -44t105.5 44t44 105.5t-44 105.5t-105.5 44t-105.5 -44t-44 -105.5z" />
<glyph unicode="&#xb1;" horiz-adv-x="1228" d="M133 0v229h963v-229h-963zM133 512v229h367v222h229v-222h367v-229h-367v-221h-229v221h-367z" />
<glyph unicode="&#xb2;" horiz-adv-x="819" d="M31 569q2 109 55 185.5t129 120t149.5 80t126 86t52.5 114.5q0 61 -27 90t-86 29q-70 0 -97.5 -36t-31.5 -108h-258q0 131 99.5 211t279.5 80q195 0 293 -78.5t98 -205.5q0 -92 -71.5 -162t-156.5 -101.5t-157 -68.5t-72 -72h418v-164h-743z" />
<glyph unicode="&#xb3;" horiz-adv-x="819" d="M10 817h266q8 -125 144 -125q57 0 95 33t38 86q0 129 -127 129h-94v137q90 -4 135 6q74 20 74 93q0 49 -34 75.5t-89 26.5q-51 0 -84 -27.5t-33 -76.5h-266q0 127 137 194q109 53 270 53q141 0 253 -63.5t112 -175.5q0 -59 -54.5 -114.5t-123.5 -55.5v-2q82 0 136 -65.5 t54 -141.5q0 -117 -113.5 -186.5t-259.5 -69.5q-193 0 -314.5 74.5t-121.5 195.5z" />
<glyph unicode="&#xb4;" horiz-adv-x="569" d="M92 1087l201 299h371l-324 -299h-248z" />
<glyph unicode="&#xb5;" d="M135 -422v1385h393v-576q0 -145 131 -145q68 0 113 51t45 121v549h393v-963h-383v160l-4 2q-31 -88 -114.5 -139.5t-182.5 -59.5v-385h-391z" />
<glyph unicode="&#xb6;" horiz-adv-x="1269" d="M16 1104q0 186 97.5 272t359.5 86h690v-1777h-245v1593h-199v-1593h-246v1060q-262 0 -359.5 86.5t-97.5 272.5z" />
<glyph unicode="&#xb7;" horiz-adv-x="681" d="M197 481.5q0 59.5 43 102.5t102 43t102 -43t43 -102.5t-43 -102.5t-102 -43t-102 43t-43 102.5z" />
<glyph unicode="&#xb8;" horiz-adv-x="569" d="M18 -459l41 94q100 -39 168 -38q104 0 105 65q0 82 -94 82q-33 0 -76 -14l-45 41l114 190h115l-84 -129q8 0 31.5 4t36.5 4q72 0 133 -40t61 -107q0 -94 -70.5 -148.5t-166.5 -54.5q-142 0 -269 51z" />
<glyph unicode="&#xb9;" horiz-adv-x="819" d="M86 1192l262 207h246v-830h-258v605l-143 -109z" />
<glyph unicode="&#xba;" horiz-adv-x="796" d="M4 1108q0 139 102.5 226t293 87t293 -87t102.5 -226t-102.5 -226t-293 -87t-293 87t-102.5 226zM272 1108q0 -178 127 -178t127 178t-127 178t-127 -178z" />
<glyph unicode="&#xbb;" horiz-adv-x="1214" d="M70 256l213 225l-213 226h336l215 -226l-215 -225h-336zM594 256l213 225l-213 226h336l215 -226l-215 -225h-336z" />
<glyph unicode="&#xbc;" horiz-adv-x="2048" d="M86 1192l262 207h246v-830h-258v605l-143 -109zM477 -37l805 1458h221l-805 -1458h-221zM1120 193v161l420 477h309v-471h101v-167h-101v-193h-258v193h-471zM1362 360h229v267h-4z" />
<glyph unicode="&#xbd;" horiz-adv-x="2048" d="M86 1192l262 207h246v-830h-258v605l-143 -109zM481 -37l805 1458h221l-805 -1458h-221zM1260 0q2 109 55 185.5t129 119.5t149.5 80t126 86t52.5 115q0 61 -27 90t-86 29q-70 0 -97.5 -36t-31.5 -108h-258q0 131 99 211t280 80q195 0 293 -79t98 -206q0 -92 -72 -161.5 t-156.5 -101.5t-156.5 -68.5t-72 -71.5h418v-164h-743z" />
<glyph unicode="&#xbe;" horiz-adv-x="2048" d="M10 817h266q8 -125 144 -125q57 0 95 33t38 86q0 129 -127 129h-94v137q26 -1 48 -1q55 0 87 7q74 20 74 93q0 49 -34 75.5t-89 26.5q-51 0 -84 -27.5t-33 -76.5h-266q0 127 137 194q109 53 270 53q141 0 253 -63.5t112 -175.5q0 -59 -54.5 -114.5t-123.5 -55.5v-2 q82 0 136 -65.5t54 -141.5q0 -117 -113.5 -186.5t-259.5 -69.5q-193 0 -314.5 74.5t-121.5 195.5zM535 -37l804 1458h222l-805 -1458h-221zM1120 193v161l420 477h309v-471h101v-167h-101v-193h-258v193h-471zM1362 360h229v267h-4z" />
<glyph unicode="&#xbf;" horiz-adv-x="1290" d="M82 -49q0 82 34 153.5t83 123t98 94.5t85 83.5t38 75.5l6 99h379q1 -9 1 -22q0 -18 -2 -44q-3 -43 -3 -59q0 -63 -48 -131t-105.5 -116t-104.5 -116.5t-47 -134.5q0 -72 50 -115t122 -43q98 0 138 73q35 63 34 148v27h401q-16 -481 -602 -481q-94 0 -186.5 21.5 t-178.5 63.5t-139 120t-53 180zM428 729v258h377v-258h-377z" />
<glyph unicode="&#xc0;" horiz-adv-x="1705" d="M25 0l577 1462h516l563 -1462h-448l-98 289h-557l-101 -289h-452zM475 1874h371l201 -299h-248zM678 571h356l-172 527h-4z" />
<glyph unicode="&#xc1;" horiz-adv-x="1705" d="M25 0l577 1462h516l563 -1462h-448l-98 289h-557l-101 -289h-452zM662 1575l200 299h371l-324 -299h-247zM678 571h356l-172 527h-4z" />
<glyph unicode="&#xc2;" horiz-adv-x="1705" d="M25 0l577 1462h516l563 -1462h-448l-98 289h-557l-101 -289h-452zM467 1575l229 299h312l233 -299h-266l-123 160l-123 -160h-262zM678 571h356l-172 527h-4z" />
<glyph unicode="&#xc3;" horiz-adv-x="1705" d="M25 0l577 1462h516l563 -1462h-448l-98 289h-557l-101 -289h-452zM467 1581q10 106 78.5 190t169.5 84q53 0 161.5 -43t139.5 -43q29 0 52.5 28t29.5 58h145q-23 -127 -80 -194.5t-178 -67.5q-51 0 -148.5 37t-134.5 37q-35 0 -60.5 -24.5t-29.5 -61.5h-145zM678 571h356 l-172 527h-4z" />
<glyph unicode="&#xc4;" horiz-adv-x="1705" d="M25 0l577 1462h516l563 -1462h-448l-98 289h-557l-101 -289h-452zM481 1593v258h312v-258h-312zM678 571h356l-172 527h-4zM915 1593v258h312v-258h-312z" />
<glyph unicode="&#xc5;" horiz-adv-x="1705" d="M25 0l577 1462h516l563 -1462h-448l-98 289h-557l-101 -289h-452zM625 1765.5q0 94.5 66.5 162t162.5 67.5t162.5 -67.5t66.5 -162t-66.5 -162t-162.5 -67.5t-162.5 67.5t-66.5 162zM678 571h356l-172 527h-4zM748 1765q0 -45 30.5 -75.5t75.5 -30.5t76 30.5t31 75.5 t-31 76t-76 31t-75.5 -31t-30.5 -76z" />
<glyph unicode="&#xc6;" horiz-adv-x="2048" d="M-2 0l813 1462h1141v-291h-520v-270h440v-283h-440v-327h520v-291h-901v303h-469l-156 -303h-428zM721 565h330v635h-4z" />
<glyph unicode="&#xc7;" horiz-adv-x="1669" d="M78 731q0 373 230.5 574.5t602.5 201.5q281 0 475.5 -137t221.5 -387h-428q-14 111 -92 176.5t-207 65.5q-154 0 -249 -129t-95 -364.5t95 -364.5t249 -129q137 0 212.5 75.5t90.5 208.5h434q-23 -147 -85.5 -257.5t-155.5 -176t-201.5 -97.5t-235.5 -34l-80 -125 q8 0 31.5 4t36.5 4q72 0 133 -40t61 -107q0 -94 -70.5 -148.5t-166.5 -54.5q-141 0 -269 51l41 94q100 -39 168 -38q104 0 105 65q0 82 -94 82q-33 0 -76 -14l-45 41l114 186q-340 25 -545.5 224.5t-205.5 549.5z" />
<glyph unicode="&#xc8;" d="M135 0v1462h1106v-299h-688v-254h565v-299h-565v-311h688v-299h-1106zM332 1874h370l201 -299h-248z" />
<glyph unicode="&#xc9;" d="M135 0v1462h1106v-299h-688v-254h565v-299h-565v-311h688v-299h-1106zM518 1575l201 299h371l-324 -299h-248z" />
<glyph unicode="&#xca;" d="M135 0v1462h1106v-299h-688v-254h565v-299h-565v-311h688v-299h-1106zM324 1575l229 299h311l234 -299h-267l-122 160l-123 -160h-262z" />
<glyph unicode="&#xcb;" d="M135 0v1462h1106v-299h-688v-254h565v-299h-565v-311h688v-299h-1106zM338 1593v258h311v-258h-311zM772 1593v258h311v-258h-311z" />
<glyph unicode="&#xcc;" horiz-adv-x="720" d="M-18 1874h370l201 -299h-248zM152 0v1462h417v-1462h-417z" />
<glyph unicode="&#xcd;" horiz-adv-x="720" d="M152 0v1462h417v-1462h-417zM168 1575l201 299h370l-323 -299h-248z" />
<glyph unicode="&#xce;" horiz-adv-x="720" d="M-27 1575l230 299h311l234 -299h-267l-123 160l-122 -160h-263zM152 0v1462h417v-1462h-417z" />
<glyph unicode="&#xcf;" horiz-adv-x="720" d="M-12 1593v258h311v-258h-311zM152 0v1462h417v-1462h-417zM422 1593v258h311v-258h-311z" />
<glyph unicode="&#xd0;" horiz-adv-x="1705" d="M16 608v299h119v555h629q428 0 646 -178t218 -553t-218 -553t-646 -178h-629v608h-119zM553 299h235q397 0 397.5 432t-397.5 432h-235v-256h338v-299h-338v-309z" />
<glyph unicode="&#xd1;" horiz-adv-x="1744" d="M137 0v1462h584l475 -979h6v979h406v-1462h-582l-479 932h-4v-932h-406zM485 1581q10 106 79 190t169 84q53 0 162 -43t139 -43q29 0 52.5 28t29.5 58h146q-23 -127 -80.5 -194.5t-177.5 -67.5q-51 0 -148.5 37t-134.5 37t-61.5 -24.5t-28.5 -61.5h-146z" />
<glyph unicode="&#xd2;" horiz-adv-x="1820" d="M78 731q0 373 230.5 574.5t602.5 201.5q371 0 601.5 -201.5t230.5 -574.5t-230.5 -574.5t-601.5 -201.5q-373 0 -603 201.5t-230 574.5zM532 1874h371l201 -299h-248zM537 731.5q0 -239.5 100 -366.5t274 -127t273.5 127t99.5 366.5t-99.5 366.5t-273.5 127t-274 -127 t-100 -366.5z" />
<glyph unicode="&#xd3;" horiz-adv-x="1820" d="M78 731q0 373 230.5 574.5t602.5 201.5q371 0 601.5 -201.5t230.5 -574.5t-230.5 -574.5t-601.5 -201.5q-373 0 -603 201.5t-230 574.5zM537 731.5q0 -239.5 100 -366.5t274 -127t273.5 127t99.5 366.5t-99.5 366.5t-273.5 127t-274 -127t-100 -366.5zM719 1575l201 299 h370l-323 -299h-248z" />
<glyph unicode="&#xd4;" horiz-adv-x="1820" d="M78 731q0 373 230.5 574.5t602.5 201.5q371 0 601.5 -201.5t230.5 -574.5t-230.5 -574.5t-601.5 -201.5q-373 0 -603 201.5t-230 574.5zM524 1575l230 299h311l233 -299h-266l-123 160l-123 -160h-262zM537 731.5q0 -239.5 100 -366.5t274 -127t273.5 127t99.5 366.5 t-99.5 366.5t-273.5 127t-274 -127t-100 -366.5z" />
<glyph unicode="&#xd5;" horiz-adv-x="1820" d="M78 731q0 373 230.5 574.5t602.5 201.5q371 0 601.5 -201.5t230.5 -574.5t-230.5 -574.5t-601.5 -201.5q-373 0 -603 201.5t-230 574.5zM524 1581q10 106 79 190t169 84q53 0 161.5 -43t139.5 -43q29 0 52.5 28t29.5 58h145q-23 -127 -80 -194.5t-178 -67.5 q-51 0 -148 37t-134 37q-35 0 -60.5 -24.5t-29.5 -61.5h-146zM537 731.5q0 -239.5 100 -366.5t274 -127t273.5 127t99.5 366.5t-99.5 366.5t-273.5 127t-274 -127t-100 -366.5z" />
<glyph unicode="&#xd6;" horiz-adv-x="1820" d="M78 731q0 373 230.5 574.5t602.5 201.5q371 0 601.5 -201.5t230.5 -574.5t-230.5 -574.5t-601.5 -201.5q-373 0 -603 201.5t-230 574.5zM537 731.5q0 -239.5 100 -366.5t274 -127t273.5 127t99.5 366.5t-99.5 366.5t-273.5 127t-274 -127t-100 -366.5zM539 1593v258h311 v-258h-311zM973 1593v258h311v-258h-311z" />
<glyph unicode="&#xd7;" horiz-adv-x="1228" d="M133 164l320 317l-320 318l162 164l319 -320l320 320l162 -162l-320 -320l320 -317l-162 -164l-320 319l-319 -319z" />
<glyph unicode="&#xd8;" horiz-adv-x="1820" d="M78 731q0 373 230.5 574.5t602.5 201.5q301 0 506 -131l158 166l98 -94l-147 -156q217 -205 217 -561q0 -373 -230.5 -574.5t-601.5 -201.5q-309 0 -518 139l-157 -166l-101 90l152 160q-209 205 -209 553zM512 731q0 -162 45 -266l629 665q-98 106 -275 107 q-188 0 -293.5 -129t-105.5 -377zM629 342q96 -117 282.5 -117t292 129t105.5 377q0 166 -52 279z" />
<glyph unicode="&#xd9;" horiz-adv-x="1669" d="M135 475v987h418v-870q0 -199 60.5 -275.5t220.5 -78.5q160 2 220 78.5t60 275.5l2 870h418v-987q0 -250 -160 -383t-540 -137q-381 4 -540 137t-159 383zM457 1874h370l201 -299h-248z" />
<glyph unicode="&#xda;" horiz-adv-x="1669" d="M135 475v987h418v-870q0 -199 60.5 -275.5t220.5 -78.5q160 2 220 78.5t60 275.5l2 870h418v-987q0 -250 -160 -383t-540 -137q-381 4 -540 137t-159 383zM643 1575l201 299h370l-323 -299h-248z" />
<glyph unicode="&#xdb;" horiz-adv-x="1669" d="M135 475v987h418v-870q0 -199 60.5 -275.5t220.5 -78.5q160 2 220 78.5t60 275.5l2 870h418v-987q0 -250 -160 -383t-540 -137q-381 4 -540 137t-159 383zM449 1575l229 299h311l234 -299h-267l-122 160l-123 -160h-262z" />
<glyph unicode="&#xdc;" horiz-adv-x="1669" d="M135 475v987h418v-870q0 -199 60.5 -275.5t220.5 -78.5q160 2 220 78.5t60 275.5l2 870h418v-987q0 -250 -160 -383t-540 -137q-381 4 -540 137t-159 383zM463 1593v258h311v-258h-311zM897 1593v258h311v-258h-311z" />
<glyph unicode="&#xdd;" horiz-adv-x="1593" d="M12 1462h465l328 -575l321 575h453l-580 -934v-528h-417v528zM604 1575l201 299h371l-324 -299h-248z" />
<glyph unicode="&#xde;" horiz-adv-x="1517" d="M135 0v1462h418v-205h268q639 0 639 -491q0 -242 -150.5 -370t-488.5 -128h-268v-268h-418zM553 567h250q227 0 227 199q0 193 -227 192h-250v-391z" />
<glyph unicode="&#xdf;" horiz-adv-x="1402" d="M129 0v963q0 532 580 532q264 0 401 -91t137 -261q0 -106 -76.5 -190.5t-177.5 -88.5v-4q348 -66 348 -426q0 -111 -35.5 -197.5t-88 -138t-120 -84t-125 -44t-108.5 -11.5q-96 0 -246 41v225q70 -20 107 -20q90 0 142.5 67.5t52.5 204.5q0 125 -75 192.5t-218 67.5v226 q115 6 170 39.5t57 111.5q0 74 -46 115t-116 41q-92 0 -131 -66.5t-39 -230.5v-973h-393z" />
<glyph unicode="&#xe0;" horiz-adv-x="1251" d="M53 260q0 164 106.5 241t348.5 77q256 0 256 114q0 119 -145.5 119t-151.5 -123h-377q51 315 496 316q299 0 418.5 -102.5t119.5 -301.5v-348q0 -178 68 -252h-397q-20 35 -29 135h-4q-55 -88 -154.5 -132t-183.5 -44q-57 0 -113.5 12.5t-119 43t-100.5 94t-38 151.5z M248 1386h370l201 -299h-248zM438 284.5q0 -55.5 40 -88t91 -32.5q72 0 124 42t57 95l12 201q-27 -29 -85.5 -49.5t-108.5 -31.5t-90 -46t-40 -90.5z" />
<glyph unicode="&#xe1;" horiz-adv-x="1251" d="M53 260q0 164 106.5 241t348.5 77q256 0 256 114q0 119 -145.5 119t-151.5 -123h-377q51 315 496 316q299 0 418.5 -102.5t119.5 -301.5v-348q0 -178 68 -252h-397q-20 35 -29 135h-4q-55 -88 -154.5 -132t-183.5 -44q-57 0 -113.5 12.5t-119 43t-100.5 94t-38 151.5z M434 1087l201 299h371l-324 -299h-248zM438 284.5q0 -55.5 40 -88t91 -32.5q72 0 124 42t57 95l12 201q-27 -29 -85.5 -49.5t-108.5 -31.5t-90 -46t-40 -90.5z" />
<glyph unicode="&#xe2;" horiz-adv-x="1251" d="M53 260q0 164 106.5 241t348.5 77q256 0 256 114q0 119 -145.5 119t-151.5 -123h-377q51 315 496 316q299 0 418.5 -102.5t119.5 -301.5v-348q0 -178 68 -252h-397q-20 35 -29 135h-4q-55 -88 -154.5 -132t-183.5 -44q-57 0 -113.5 12.5t-119 43t-100.5 94t-38 151.5z M240 1087l229 299h311l234 -299h-266l-123 160l-123 -160h-262zM438 284.5q0 -55.5 40 -88t91 -32.5q72 0 124 42t57 95l12 201q-27 -29 -85.5 -49.5t-108.5 -31.5t-90 -46t-40 -90.5z" />
<glyph unicode="&#xe3;" horiz-adv-x="1251" d="M53 260q0 164 106.5 241t348.5 77q256 0 256 114q0 119 -145.5 119t-151.5 -123h-377q51 315 496 316q299 0 418.5 -102.5t119.5 -301.5v-348q0 -178 68 -252h-397q-20 35 -29 135h-4q-55 -88 -154.5 -132t-183.5 -44q-57 0 -113.5 12.5t-119 43t-100.5 94t-38 151.5z M240 1094q10 106 78.5 190t168.5 84q53 0 162 -43t139 -43q29 0 52.5 27.5t29.5 58.5h146q-23 -127 -80 -194.5t-178 -67.5q-51 0 -148.5 37t-134.5 37t-61.5 -25t-28.5 -61h-145zM438 284.5q0 -55.5 40 -88t91 -32.5q72 0 124 42t57 95l12 201q-27 -29 -85.5 -49.5 t-108.5 -31.5t-90 -46t-40 -90.5z" />
<glyph unicode="&#xe4;" horiz-adv-x="1251" d="M53 260q0 164 106.5 241t348.5 77q256 0 256 114q0 119 -145.5 119t-151.5 -123h-377q51 315 496 316q299 0 418.5 -102.5t119.5 -301.5v-348q0 -178 68 -252h-397q-20 35 -29 135h-4q-55 -88 -154.5 -132t-183.5 -44q-57 0 -113.5 12.5t-119 43t-100.5 94t-38 151.5z M254 1106v258h311v-258h-311zM438 284.5q0 -55.5 40 -88t91 -32.5q72 0 124 42t57 95l12 201q-27 -29 -85.5 -49.5t-108.5 -31.5t-90 -46t-40 -90.5zM688 1106v258h311v-258h-311z" />
<glyph unicode="&#xe5;" horiz-adv-x="1251" d="M53 260q0 164 106.5 241t348.5 77q256 0 256 114q0 119 -145.5 119t-151.5 -123h-377q51 315 496 316q299 0 418.5 -102.5t119.5 -301.5v-348q0 -178 68 -252h-397q-20 35 -29 135h-4q-55 -88 -154.5 -132t-183.5 -44q-57 0 -113.5 12.5t-119 43t-100.5 94t-38 151.5z M397 1278q0 94 67.5 161.5t162 67.5t162 -67.5t67.5 -161.5t-67.5 -161.5t-162 -67.5t-162 67.5t-67.5 161.5zM438 284.5q0 -55.5 40 -88t91 -32.5q72 0 124 42t57 95l12 201q-27 -29 -85.5 -49.5t-108.5 -31.5t-90 -46t-40 -90.5zM520 1278q0 -45 31 -76t76 -31t75.5 31 t30.5 76t-30.5 75.5t-75.5 30.5t-76 -30.5t-31 -75.5z" />
<glyph unicode="&#xe6;" horiz-adv-x="1896" d="M53 258q0 172 103.5 241.5t384.5 69.5q111 0 153.5 31t42.5 90q0 41 -34.5 75t-92.5 34q-45 0 -83 -28t-38 -83h-399q14 86 62.5 149.5t120 98.5t149.5 51.5t164 16.5q209 0 370 -103q137 102 314 103q158 0 273.5 -54.5t176 -145.5t86.5 -191q25 -92 25 -194v-16h-719 q0 -231 182 -231q66 0 99.5 41t31.5 82h385q-31 -147 -170 -242q-137 -94 -313 -94q-195 0 -305.5 45t-177.5 154q-68 -119 -167 -159t-253 -40q-186 0 -278.5 83t-92.5 216zM446 266q0 -47 32 -74.5t87 -27.5q74 0 122 55t48 160v96h-4q-12 -23 -60 -43t-97.5 -33.5 t-88.5 -47.5t-39 -85zM1118 608h318q-4 86 -44 138.5t-110 52.5q-72 0 -118 -59.5t-46 -131.5z" />
<glyph unicode="&#xe7;" horiz-adv-x="1251" d="M66 487q0 201 156.5 359t428.5 158q211 0 364.5 -102.5t184.5 -278.5h-405q-12 68 -45 102q-37 37 -103 37q-78 0 -123 -68.5t-45 -197.5q0 -170 47 -232.5t125 -62.5q82 0 116 40t40 111h393q-14 -207 -182 -307q-117 -72 -303 -82l-86 -131q8 0 31.5 4t35.5 4 q74 0 134.5 -40t60.5 -107q0 -94 -70.5 -148.5t-167.5 -54.5q-141 0 -268 51l41 94q100 -39 168 -38q104 0 104 65q0 82 -94 82q-33 0 -76 -14l-45 41l117 192q-236 10 -385 149t-149 375z" />
<glyph unicode="&#xe8;" horiz-adv-x="1251" d="M53 465q0 258 159 398.5t419 140.5q156 0 272.5 -53.5t179 -142.5t89.5 -192q21 -79 22 -162q0 -25 -2 -51h-770q20 -231 209 -231q59 0 108 33t68 86h364q-57 -164 -208.5 -248t-335.5 -84q-242 0 -408 133t-166 373zM272 1386h371l201 -299h-248zM422 608h403 q-10 82 -64 136.5t-136 54.5q-84 0 -138.5 -53.5t-64.5 -137.5z" />
<glyph unicode="&#xe9;" horiz-adv-x="1251" d="M53 465q0 258 159 398.5t419 140.5q156 0 272.5 -53.5t179 -142.5t89.5 -192q21 -79 22 -162q0 -25 -2 -51h-770q20 -231 209 -231q59 0 108 33t68 86h364q-57 -164 -208.5 -248t-335.5 -84q-242 0 -408 133t-166 373zM422 608h403q-10 82 -64 136.5t-136 54.5 q-84 0 -138.5 -53.5t-64.5 -137.5zM459 1087l200 299h371l-323 -299h-248z" />
<glyph unicode="&#xea;" horiz-adv-x="1251" d="M53 465q0 258 159 398.5t419 140.5q156 0 272.5 -53.5t179 -142.5t89.5 -192q21 -79 22 -162q0 -25 -2 -51h-770q20 -231 209 -231q59 0 108 33t68 86h364q-57 -164 -208.5 -248t-335.5 -84q-242 0 -408 133t-166 373zM264 1087l230 299h311l233 -299h-266l-123 160 l-123 -160h-262zM422 608h403q-10 82 -64 136.5t-136 54.5q-84 0 -138.5 -53.5t-64.5 -137.5z" />
<glyph unicode="&#xeb;" horiz-adv-x="1251" d="M53 465q0 258 159 398.5t419 140.5q156 0 272.5 -53.5t179 -142.5t89.5 -192q21 -79 22 -162q0 -25 -2 -51h-770q20 -231 209 -231q59 0 108 33t68 86h364q-57 -164 -208.5 -248t-335.5 -84q-242 0 -408 133t-166 373zM279 1106v258h311v-258h-311zM422 608h403 q-10 82 -64 136.5t-136 54.5q-84 0 -138.5 -53.5t-64.5 -137.5zM713 1106v258h311v-258h-311z" />
<glyph unicode="&#xec;" horiz-adv-x="645" d="M-55 1386h370l201 -299h-248zM127 0v963h393v-963h-393z" />
<glyph unicode="&#xed;" horiz-adv-x="645" d="M127 0v963h393v-963h-393zM131 1087l201 299h370l-323 -299h-248z" />
<glyph unicode="&#xee;" horiz-adv-x="645" d="M-63 1087l229 299h311l234 -299h-267l-122 160l-123 -160h-262zM127 0v963h393v-963h-393z" />
<glyph unicode="&#xef;" horiz-adv-x="645" d="M-49 1106v258h311v-258h-311zM127 0v963h393v-963h-393zM385 1106v258h311v-258h-311z" />
<glyph unicode="&#xf0;" d="M55 481.5q0 229.5 157 376t452 146.5q45 0 63 -5q-53 82 -129 158l-246 -94l-94 121l219 84q-102 76 -186 108l235 86q106 -39 199 -98l258 98l96 -119l-211 -81q180 -143 292 -332t112 -387q0 -272 -154.5 -428t-453.5 -156q-295 0 -452 146.5t-157 376zM469 481.5 q0 -286.5 195 -297.5q195 10 194.5 297t-194.5 297q-195 -10 -195 -296.5z" />
<glyph unicode="&#xf1;" d="M135 0v963h387v-164h4q74 205 336 205q133 0 237.5 -90.5t110.5 -254.5v-659h-393v575q0 145 -131 146q-68 0 -113 -51.5t-45 -120.5v-549h-393zM276 1094q10 106 79 190t169 84q53 0 162 -43t139 -43q29 0 52.5 27.5t29.5 58.5h146q-23 -127 -80.5 -194.5t-177.5 -67.5 q-51 0 -148.5 37t-134.5 37t-61.5 -25t-28.5 -61h-146z" />
<glyph unicode="&#xf2;" d="M55 481.5q0 229.5 157 376t451.5 146.5t451.5 -146.5t157 -376t-157 -376t-451.5 -146.5t-451.5 146.5t-157 376zM285 1386h370l201 -299h-248zM469 481q0 -297 194.5 -297t194.5 297t-194.5 297t-194.5 -297z" />
<glyph unicode="&#xf3;" d="M55 481.5q0 229.5 157 376t451.5 146.5t451.5 -146.5t157 -376t-157 -376t-451.5 -146.5t-451.5 146.5t-157 376zM469 481q0 -297 194.5 -297t194.5 297t-194.5 297t-194.5 -297zM471 1087l201 299h370l-323 -299h-248z" />
<glyph unicode="&#xf4;" d="M55 481.5q0 229.5 157 376t451.5 146.5t451.5 -146.5t157 -376t-157 -376t-451.5 -146.5t-451.5 146.5t-157 376zM276 1087l230 299h311l234 -299h-267l-122 160l-123 -160h-263zM469 481q0 -297 194.5 -297t194.5 297t-194.5 297t-194.5 -297z" />
<glyph unicode="&#xf5;" d="M55 481.5q0 229.5 157 376t451.5 146.5t451.5 -146.5t157 -376t-157 -376t-451.5 -146.5t-451.5 146.5t-157 376zM276 1094q10 106 79 190t169 84q53 0 162 -43t139 -43q29 0 52.5 27.5t29.5 58.5h146q-23 -127 -80.5 -194.5t-177.5 -67.5q-51 0 -148.5 37t-134.5 37 t-61.5 -25t-28.5 -61h-146zM469 481q0 -297 194.5 -297t194.5 297t-194.5 297t-194.5 -297z" />
<glyph unicode="&#xf6;" d="M55 481.5q0 229.5 157 376t451.5 146.5t451.5 -146.5t157 -376t-157 -376t-451.5 -146.5t-451.5 146.5t-157 376zM291 1106v258h311v-258h-311zM469 481q0 -297 194.5 -297t194.5 297t-194.5 297t-194.5 -297zM725 1106v258h311v-258h-311z" />
<glyph unicode="&#xf7;" horiz-adv-x="1228" d="M133 367v229h963v-229h-963zM451 122.5q0 67.5 48 116t115.5 48.5t115.5 -48.5t48 -116t-48 -115.5t-115.5 -48t-115.5 48t-48 115.5zM451 839.5q0 67.5 48 116t115.5 48.5t115.5 -48.5t48 -116t-48 -115.5t-115.5 -48t-115.5 48t-48 115.5z" />
<glyph unicode="&#xf8;" d="M55 481.5q0 229.5 157 376t452 146.5q190 0 327 -66l94 100l86 -75l-81 -86q182 -139 182 -396q0 -229 -157 -375.5t-451 -146.5q-217 0 -363 84l-104 -111l-86 78l96 101q-152 141 -152 370.5zM453 481q0 -61 8 -102l340 356q-49 55 -137 56q-211 -1 -211 -310zM504 256 q51 -84 160 -84q211 0 210 309q0 88 -18 150z" />
<glyph unicode="&#xf9;" d="M135 303v660h393v-576q0 -145 131 -145q68 0 113 51t45 121v549h393v-963h-387v164h-4q-74 -205 -336 -205q-133 0 -237.5 90t-110.5 254zM285 1386h370l201 -299h-248z" />
<glyph unicode="&#xfa;" d="M135 303v660h393v-576q0 -145 131 -145q68 0 113 51t45 121v549h393v-963h-387v164h-4q-74 -205 -336 -205q-133 0 -237.5 90t-110.5 254zM471 1087l201 299h370l-323 -299h-248z" />
<glyph unicode="&#xfb;" d="M135 303v660h393v-576q0 -145 131 -145q68 0 113 51t45 121v549h393v-963h-387v164h-4q-74 -205 -336 -205q-133 0 -237.5 90t-110.5 254zM276 1087l230 299h311l234 -299h-267l-122 160l-123 -160h-263z" />
<glyph unicode="&#xfc;" d="M135 303v660h393v-576q0 -145 131 -145q68 0 113 51t45 121v549h393v-963h-387v164h-4q-74 -205 -336 -205q-133 0 -237.5 90t-110.5 254zM291 1106v258h311v-258h-311zM725 1106v258h311v-258h-311z" />
<glyph unicode="&#xfd;" horiz-adv-x="1214" d="M8 963h414l205 -631h4l180 631h393l-360 -963q-53 -143 -89 -216t-91.5 -125t-121 -66.5t-175.5 -14.5q-92 0 -189 19v241q43 -14 80 -14q72 0 114 38t85 138zM416 1087l200 299h371l-323 -299h-248z" />
<glyph unicode="&#xfe;" horiz-adv-x="1366" d="M129 -422v1884h367v-614h4q96 156 334 156q180 0 326.5 -142.5t146.5 -367.5q0 -92 -22.5 -179.5t-73 -169.5t-145.5 -133t-222 -53q-213 0 -322 115v-496h-393zM522 481q0 -129 51.5 -196.5t135.5 -67.5t134 67.5t50 196.5t-50 196.5t-134 67.5t-135.5 -67.5 t-51.5 -196.5z" />
<glyph unicode="&#xff;" horiz-adv-x="1214" d="M8 963h414l205 -631h4l180 631h393l-360 -963q-53 -143 -89 -216t-91.5 -125t-121 -66.5t-175.5 -14.5q-92 0 -189 19v241q43 -14 80 -14q72 0 114 38t85 138zM236 1106v258h311v-258h-311zM670 1106v258h311v-258h-311z" />
<glyph unicode="&#x152;" horiz-adv-x="2048" d="M74 731q0 356 210 564t560 212q70 0 174 -22q127 -23 174 -23h782v-291h-559v-270h469v-283h-469v-327h559v-291h-852q-57 0 -126.5 -16.5t-172.5 -16.5q-360 0 -554.5 203t-194.5 561zM512 731q0 -131 29.5 -239.5t107.5 -187.5t195 -79q82 0 186 64v885q-51 33 -88 45 q-55 18 -98 18q-117 0 -195 -79t-107.5 -187.5t-29.5 -239.5z" />
<glyph unicode="&#x153;" horiz-adv-x="2009" d="M53 481.5q0 229.5 157 376t452 146.5q252 0 372 -121q115 121 350 121q156 0 273 -53.5t179 -142.5t90 -192q21 -79 21 -162q0 -25 -1 -51h-729q0 -98 38.5 -164.5t130.5 -66.5q39 0 67 11.5t44 36t22.5 37.5t16.5 46h389q-43 -170 -199 -260q-137 -84 -325 -84 q-248 0 -369 121q-115 -121 -370 -121q-295 0 -452 146.5t-157 376zM467 481q0 -297 188 -297q180 0 181 297q0 170 -46.5 233.5t-134.5 63.5q-188 0 -188 -297zM1229 608h325q0 7 1 14q0 75 -42 123q-45 53 -120 54q-74 0 -119 -56.5t-45 -134.5z" />
<glyph unicode="&#x178;" horiz-adv-x="1593" d="M12 1462h465l328 -575l321 575h453l-580 -934v-528h-417v528zM424 1593v258h311v-258h-311zM858 1593v258h311v-258h-311z" />
<glyph unicode="&#x2c6;" horiz-adv-x="569" d="M-102 1087l229 299h311l234 -299h-266l-123 160l-123 -160h-262z" />
<glyph unicode="&#x2dc;" horiz-adv-x="569" d="M-102 1094q10 106 78.5 190t168.5 84q53 0 162 -43t139 -43q29 0 52.5 27.5t29.5 58.5h146q-23 -127 -80 -194.5t-178 -67.5q-51 0 -148.5 37t-134.5 37q-35 0 -60.5 -25t-29.5 -61h-145z" />
<glyph unicode="&#x2013;" horiz-adv-x="1024" d="M0 358v246h1024v-246h-1024z" />
<glyph unicode="&#x2014;" horiz-adv-x="2048" d="M0 358v246h2048v-246h-2048z" />
<glyph unicode="&#x2018;" horiz-adv-x="681" d="M154 877v301q4 141 84 284h274q-88 -94 -88 -206v-15h106v-364h-376z" />
<glyph unicode="&#x2019;" horiz-adv-x="681" d="M152 1098v364h376v-301q-4 -141 -84 -284h-274q88 94 88 206v15h-106z" />
<glyph unicode="&#x201a;" horiz-adv-x="681" d="M152 0v365h376v-302q-4 -141 -84 -284h-274q88 94 88 206v15h-106z" />
<glyph unicode="&#x201c;" horiz-adv-x="1062" d="M96 877v301q4 141 84 284h275q-88 -94 -89 -206q0 -7 1 -15h106v-364h-377zM590 877v301q4 141 84 284h274q-88 -94 -88 -206v-15h107v-364h-377z" />
<glyph unicode="&#x201d;" horiz-adv-x="1062" d="M96 1098v364h377v-301q-4 -141 -84 -284h-274q88 94 88 206v15h-107zM590 1098v364h377v-301q-4 -141 -84 -284h-275q88 94 89 206q0 7 -1 15h-106z" />
<glyph unicode="&#x201e;" horiz-adv-x="1062" d="M96 0v365h377v-302q-4 -141 -84 -284h-274q88 94 88 206v15h-107zM590 0v365h377v-302q-4 -141 -84 -284h-275q88 94 89 206q0 7 -1 15h-106z" />
<glyph unicode="&#x2022;" horiz-adv-x="1024" d="M147 731.5q0 151.5 106.5 258t258.5 106.5t259.5 -106.5t107.5 -258t-107.5 -259t-259.5 -107.5t-258.5 107.5t-106.5 259z" />
<glyph unicode="&#x2026;" horiz-adv-x="2048" d="M154 0v365h376v-365h-376zM836 0v365h376v-365h-376zM1518 0v365h376v-365h-376z" />
<glyph unicode="&#x2039;" horiz-adv-x="681" d="M66 481l215 226h335l-213 -226l213 -225h-335z" />
<glyph unicode="&#x203a;" horiz-adv-x="681" d="M66 256l213 225l-213 226h335l215 -226l-215 -225h-335z" />
<glyph unicode="&#x2122;" horiz-adv-x="2048" d="M74 1278v184h704v-184h-229v-660h-246v660h-229zM971 618v844h319l183 -489l182 489h319v-844h-221v553h-4l-186 -553h-181l-186 553h-4v-553h-221z" />
<glyph unicode="&#xe000;" horiz-adv-x="965" d="M0 965h965v-965h-965v965z" />
<glyph unicode="&#xfb01;" horiz-adv-x="1366" d="M31 705v258h131v172q0 195 87 277.5t253 82.5q168 0 282 -45v-240q-57 23 -112 23q-49 0 -83 -31t-34 -78v-161h225v-258h-225v-705h-393v705h-131zM856 0v963h393v-963h-393zM856 1110v352h393v-352h-393z" />
<glyph unicode="&#xfb02;" horiz-adv-x="1366" d="M31 705v258h131v172q0 195 87 277.5t253 82.5q168 0 282 -45v-240q-57 23 -112 23q-49 0 -83 -31t-34 -78v-161h225v-258h-225v-705h-393v705h-131zM856 0v1462h393v-1462h-393z" />
<glyph unicode="&#xfb03;" horiz-adv-x="2238" d="M47 705v258h131v172q0 195 87 277.5t253 82.5q168 0 283 -45v-240q-57 23 -113 23q-49 0 -83 -31t-34 -78v-161h226v-258h-226v-705h-393v705h-131zM844 705v258h131v172q0 195 87 277.5t253 82.5q168 0 282 -45v-240q-57 23 -112 23q-49 0 -83 -31t-34 -78v-161h225 v-258h-225v-705h-393v705h-131zM1720 0v963h394v-963h-394zM1720 1110v352h394v-352h-394z" />
<glyph unicode="&#xfb04;" horiz-adv-x="2238" d="M47 705v258h131v172q0 195 87 277.5t253 82.5q168 0 283 -45v-240q-57 23 -113 23q-49 0 -83 -31t-34 -78v-161h226v-258h-226v-705h-393v705h-131zM844 705v258h131v172q0 195 87 277.5t253 82.5q168 0 282 -45v-240q-57 23 -112 23q-49 0 -83 -31t-34 -78v-161h225 v-258h-225v-705h-393v705h-131zM1720 0v1462h394v-1462h-394z" />
</font>
</defs>
</svg>
